<svg xmlns="http://www.w3.org/2000/svg" xmlns:xlink="http://www.w3.org/1999/xlink" width="1920" height="1080" viewBox="0 0 1920 1080"><defs><style>.a,.b{fill:none;}.b{opacity:0.5;}.c{isolation:isolate;}.d{clip-path:url(#a);}.e{opacity:0.55;}.f{fill:#fcc481;}.g{fill:#93ceb0;}.h{fill:#005dab;}.i{clip-path:url(#b);}.j{fill:#70aadb;}.k{opacity:0.14;mix-blend-mode:soft-light;fill:url(#c);}.l{fill:#fff;}.m{clip-path:url(#d);}.n{clip-path:url(#e);}.o{clip-path:url(#f);}</style><clipPath id="a"><rect class="a" x="0.5" y="-1179" width="1920" height="1080"/></clipPath><clipPath id="b"><rect class="b" y="0.5" width="1920" height="1079"/></clipPath><linearGradient id="c" x1="960.5" y1="282.5" x2="960.5" y2="1079.85" gradientUnits="userSpaceOnUse"><stop offset="0" stop-color="#fff"/><stop offset="0.39" stop-color="#fdfefe"/><stop offset="0.54" stop-color="#f6f9fc"/><stop offset="0.64" stop-color="#ebf1f8"/><stop offset="0.72" stop-color="#dae5f2"/><stop offset="0.79" stop-color="#c4d6eb"/><stop offset="0.85" stop-color="#a8c4e2"/><stop offset="0.91" stop-color="#88aed7"/><stop offset="0.96" stop-color="#6495ca"/><stop offset="1" stop-color="#3f7cbe"/></linearGradient><clipPath id="d"><rect class="a" x="2022" y="0.5" width="1920" height="1079"/></clipPath><clipPath id="e"><rect class="a" x="2022" y="1176.5" width="1920" height="1079"/></clipPath><clipPath id="f"><rect class="b" x="-2299" y="0.5" width="1920" height="1079"/></clipPath></defs><title>fundo_com_quadro</title><g class="c"><g class="d"><g class="e"><path class="f" d="M726-78s77.19,4.41,209-56c168-77,472-116,636.62-98,85.2,9.33-159.23,300-159.23,300Z"/><path class="f" d="M-318.56-648.87S219.9-483.91,284-412c82,92,28,133,131,149C581.86-237.08,798,17,702,16s-857,1.48-857,1.48Z"/><path class="g" d="M-98-1009S221-891,208-704c-15.39,221.37-78,336,78,363C511.75-301.93,602-107,578,56,548.4,257-52-18-52-18l-5.6-942Z"/><path class="h" d="M-102-974S42.91-796.67,102-588c79,279,98.27,339,273,406C495-136,583.39,61.15,530,100S-477.06-186.19-477.06-186.19Z"/><path class="h" d="M2017-984s-165,196-191,413c-18.4,153.54-83.13,346-237,346-99,0-245,62-259,233s703-54,703-54Z"/></g></g><g class="i"><g class="e"><path class="f" d="M1458-17.5s72,214,170,172c162.31-69.56,216.21,41.54,216,101s-130.94,203.15-32,296c130,122,264.42,27.78,274,175s276.9-443.68,276.9-443.68-384-498.58-393.41-495.25S1520.89-47.82,1521-41.5,1458-17.5,1458-17.5Z"/><path class="f" d="M-337.56,497.63S96.31,554.49,152,696.5c60,153,92,190,268,174,199.27-18.12,329.62,319.93,233.6,319S-174,1164-174,1164"/><path class="g" d="M-203,20.5s426.6,81.09,329,131c-88,45-149.37,223.64-72,281,58,43,138.82,121.07,158,187,48,165-165,295-236,310s-191-909-191-909"/><path class="j" d="M-114,158.5s325.12,175.74,270,344c-76,232-70,409.32,94,399,302-19,230.34,330.52,177,369.36s-902-307.55-902-307.55"/><path class="h" d="M-264,568.5s198.14,14.93,289,208c104,221,129,249,294,222s248-72,367,4c121.43,77.55,190,128,190,128H-56l-279-279"/><path class="f" d="M548-64.5s-284-27-342,149c-41.88,127.1-182,63-236,178-36.43,77.58-15-365-15-365Z"/><path class="g" d="M1816,678.5s-108,184-244,122c-82.81-37.75-146,22-164,72-16.76,46.55-6,128-6,128s248.9-20,261.23-28S1840,768.5,1840,768.5Z"/><path class="j" d="M1516-136.5s-230,136,166,165c166.2,12.17,187.83,165.59,152,263-64,174,88.65,340.38,274,327,236.6-17.08,301.06-444.7,193.76-616.76S1771.7-135.08,1709.89-120C1651.48-105.66,1516-136.5,1516-136.5Z"/><path class="h" d="M2042,455.5s-195,79-243,226-75.13,240-229,240c-99,0-245,62-259,233s703-54,703-54Z"/><rect class="k" y="282.5" width="1921" height="797.35"/></g><rect class="a" x="0.5" y="1.5" width="1920" height="1079.5"/><rect class="l" x="300" width="1320" height="1080"/></g><g class="m"><g class="e"><path class="f" d="M1684.44,497.63S2118.31,554.49,2174,696.5c60,153,92,190,268,174,199.27-18.12,329.62,319.93,233.6,319S1848,1164,1848,1164"/><path class="g" d="M1819,20.5s426.6,81.09,329,131c-88,45-149.37,223.64-72,281,58,43,138.82,121.07,158,187,48,165-165,295-236,310s-191-909-191-909"/><path class="j" d="M1908,158.5s325.12,175.74,270,344c-76,232-70,409.32,94,399,302-19,230.34,330.52,176.95,369.36s-902-307.55-902-307.55"/><path class="h" d="M1758,568.5s198.14,14.93,289,208c104,221,129,249,294,222s248-72,367,4c121.43,77.55,190,128,190,128H1966l-279-279"/></g></g><g class="o"><g class="e"><path class="f" d="M-840-15.5s72,214,170,172c162.31-69.56,216.21,41.54,216,101s-130.94,203.15-32,296c130,122,264.42,27.78,274,175S64.9,284.82,64.9,284.82s-384-498.58-393.41-495.25S-777.11-45.82-777-39.5-840-15.5-840-15.5Z"/><path class="j" d="M-782-134.5s-230,136,166,165c166.2,12.17,187.83,165.59,152,263-64,174,88.65,340.38,274,327C46.6,603.42,111.06,175.8,3.76,3.74S-526.3-133.08-588.11-118C-646.52-103.66-782-134.5-782-134.5Z"/></g></g></g></svg>