<svg xmlns="http://www.w3.org/2000/svg" xmlns:xlink="http://www.w3.org/1999/xlink" width="1920" height="1080" viewBox="0 0 1920 1080"><defs><style>.cls-1,.cls-2{fill:none;}.cls-2{opacity:0.5;}.cls-3{isolation:isolate;}.cls-4{clip-path:url(#clip-path);}.cls-5{opacity:0.55;}.cls-6{fill:#005dab;}.cls-7{clip-path:url(#clip-path-2);}.cls-8{fill:#fcc481;}.cls-9{fill:#93ceb0;}.cls-10{clip-path:url(#clip-path-3);}.cls-11{fill:#70aadb;}.cls-12{clip-path:url(#clip-path-4);}.cls-13{opacity:0.14;mix-blend-mode:soft-light;fill:url(#Gradiente_sem_nome_10);}</style><clipPath id="clip-path"><rect id="máscara" class="cls-1" x="2299.5" y="-1179" width="1920" height="1080"/></clipPath><clipPath id="clip-path-2"><rect id="máscara-2" data-name="máscara" class="cls-1" y="-1179" width="1920" height="1080"/></clipPath><clipPath id="clip-path-3"><rect id="máscara-3" data-name="máscara" class="cls-2" x="2299" y="0.5" width="1920" height="1079"/></clipPath><clipPath id="clip-path-4"><rect id="máscara-4" data-name="máscara" class="cls-2" y="0.5" width="1920" height="1079"/></clipPath><linearGradient id="Gradiente_sem_nome_10" x1="961.5" y1="284.5" x2="961.5" y2="1081.8524" gradientUnits="userSpaceOnUse"><stop offset="0" stop-color="#fff"/><stop offset="0.3945" stop-color="#fdfefe"/><stop offset="0.5366" stop-color="#f6f9fc"/><stop offset="0.6379" stop-color="#ebf1f8"/><stop offset="0.7199" stop-color="#dae5f2"/><stop offset="0.7901" stop-color="#c4d6eb"/><stop offset="0.8522" stop-color="#a8c4e2"/><stop offset="0.9083" stop-color="#88aed7"/><stop offset="0.9583" stop-color="#6495ca"/><stop offset="1" stop-color="#3f7cbe"/></linearGradient></defs><title>SITE</title><g class="cls-3"><g id="SITE"><g id="FUNDO"><g class="cls-4"><g id="FUNDO-2" data-name="FUNDO" class="cls-5"><path class="cls-6" d="M2197-974s144.9131,177.3262,204,386c79,279,98.2672,339.0191,273,406,120,46,208.3937,243.1527,155,282S1821.9376-186.1891,1821.9376-186.1891Z"/></g></g></g><g id="FUNDO-3" data-name="FUNDO"><g class="cls-7"><g id="FUNDO-4" data-name="FUNDO" class="cls-5"><path class="cls-8" d="M725.5-78s77.1856,4.4149,209-56c168-77,472-116,636.6217-97.9776,85.194,9.3268-159.2318,299.9637-159.2318,299.9637Z"/><path class="cls-8" d="M-319.0628-648.8728S219.403-483.9137,283.5-412c82,92,28,133,131,149,166.86,25.92,383.0161,279.957,287,279s-857.0034,1.4794-857.0034,1.4794Z"/><path class="cls-9" d="M-98.5-1009s319,118,306,305c-15.3893,221.3689-78,336,78,363,225.7507,39.0722,316,234,292,397-29.5991,201.0271-630-74-630-74l-5.6023-942.0538Z"/><path class="cls-6" d="M-102.5-974s144.9131,177.3262,204,386c79,279,98.2672,339.0191,273,406,120,46,208.3937,243.1527,155,282S-477.5624-186.1891-477.5624-186.1891Z"/><path class="cls-6" d="M2016.5-984s-165,196-191,413c-18.3965,153.54-83.1267,346-237,346-99,0-245,62-259,233s703-54,703-54Z"/></g></g></g><g id="_1_PÁG" data-name="1ª PÁG"><g class="cls-10"><g id="FUNDO-5" data-name="FUNDO" class="cls-5"><path class="cls-11" d="M2185,158.5s325.1182,175.7443,270,344c-76,232-69.9852,409.317,94,399,302-19,230.34,330.5167,176.9465,369.364s-902.0089-307.5531-902.0089-307.5531"/></g></g></g><g id="_1_PÁG-2" data-name="1ª PÁG"><g class="cls-12"><g id="FUNDO-6" data-name="FUNDO" class="cls-5"><path class="cls-8" d="M1459-15.5s72,214,170,172c162.3117-69.5622,216.2073,41.5361,216,101s-130.936,203.1524-32,296c130,122,264.4231,27.7849,274,175s276.8985-443.6831,276.8985-443.6831-383.9745-498.5815-393.4036-495.251S1521.8875-45.8236,1522-39.5,1459-15.5,1459-15.5Z"/><path class="cls-8" d="M-336.5628,499.6272S97.3089,556.4877,153,698.5c60,153,92,190,268,174,199.2683-18.1153,329.62,319.9321,233.6039,318.9751s-827.6074-25.4957-827.6074-25.4957"/><path class="cls-9" d="M-202,22.5s426.6013,81.09,329,131c-88,45-149.3727,223.6375-72,281,58,43,138.8216,121.0744,158,187,48,165-165,295-236,310s-191-909-191-909"/><path class="cls-11" d="M-113,160.5s325.1182,175.7443,270,344c-76,232-69.9852,409.317,94,399,302-19,230.34,330.5167,176.9465,369.364S-474.0624,965.3109-474.0624,965.3109"/><path class="cls-6" d="M-263,570.5s198.1438,14.9306,289,208c104,221,129,249,294,222s248-72,367,4c121.4342,77.5546,190,128,190,128H-55l-279-279"/><path class="cls-8" d="M549-62.5s-284-27-342,149c-41.8843,127.0972-182,63-236,178-36.4271,77.5762-15-365-15-365Z"/><path class="cls-9" d="M1817,680.5s-108,184-244,122c-82.8133-37.7531-146,22-164,72-16.7587,46.552-6,128-6,128s248.899-20,261.2316-28S1841,770.5,1841,770.5Z"/><path class="cls-11" d="M1517-134.5s-230,136,166,165c166.1983,12.1711,187.8283,165.5919,152,263-64,174,88.6546,340.3823,274,327,236.6013-17.083,301.0627-444.6957,193.7624-616.7615s-530.0615-136.8207-591.8772-121.694C1652.4754-103.6621,1517-134.5,1517-134.5Z"/><path class="cls-6" d="M2043,457.5s-195,79-243,226-75.1267,240-229,240c-99,0-245,62-259,233s703-54,703-54Z"/><rect id="GRADIENTE" class="cls-13" x="1" y="284.5" width="1921" height="797.3524"/></g></g></g></g></g></svg>