<svg xmlns="http://www.w3.org/2000/svg" xmlns:xlink="http://www.w3.org/1999/xlink" width="1920" height="1080" viewBox="0 0 1920 1080"><defs><style>.cls-1,.cls-2{fill:none;}.cls-2{opacity:0.5;}.cls-3{isolation:isolate;}.cls-4{clip-path:url(#clip-path);}.cls-5{opacity:0.55;}.cls-6{fill:#005dab;}.cls-7{clip-path:url(#clip-path-2);}.cls-8{opacity:0.3;mix-blend-mode:soft-light;fill:url(#Gradiente_sem_nome_10);}.cls-9{fill:#fcc481;}.cls-10{clip-path:url(#clip-path-3);}.cls-11{fill:#70aadb;}.cls-12{fill:#fff;}.cls-13{fill:#93ceb0;}.cls-14{clip-path:url(#clip-path-4);}.cls-15{clip-path:url(#clip-path-5);}</style><clipPath id="clip-path"><rect id="máscara" class="cls-1" x="2299.5" width="1920" height="1080"/></clipPath><clipPath id="clip-path-2"><rect id="máscara-2" data-name="máscara" class="cls-1" width="1920" height="1080"/></clipPath><linearGradient id="Gradiente_sem_nome_10" x1="960" y1="226" x2="960" y2="1079.6013" gradientUnits="userSpaceOnUse"><stop offset="0" stop-color="#fff"/><stop offset="0.3945" stop-color="#fdfefe"/><stop offset="0.5366" stop-color="#f6f9fc"/><stop offset="0.6379" stop-color="#ebf1f8"/><stop offset="0.7199" stop-color="#dae5f2"/><stop offset="0.7901" stop-color="#c4d6eb"/><stop offset="0.8522" stop-color="#a8c4e2"/><stop offset="0.9083" stop-color="#88aed7"/><stop offset="0.9583" stop-color="#6495ca"/><stop offset="1" stop-color="#3f7cbe"/></linearGradient><clipPath id="clip-path-3"><path class="cls-1" d="M169.5471,750.9081c7.01-13.6359-21.3555-42.6317-20.0471-57.9081,4.2155-49.22,109.9873-141.2256,629.6179-68.3986,663.7651,93.0277,675.1261-15.7464,695.04-144.8682,22.5809-146.4127,55.8653-207.4571,295.9976-261.5853,316.791-71.4078,281.5128,499.23,20.6671,675.1261s-398.082-1.5554-732.0839,131.366-551.086,62.0167-719.5358-54.6024c-103.9385-71.9574-112.4141-97.8808-162.3846-132.86C144.5768,814.6082,156.8093,775.6853,169.5471,750.9081Z"/></clipPath><clipPath id="clip-path-4"><rect id="máscara-3" data-name="máscara" class="cls-2" x="2299" y="1179.5" width="1920" height="1079"/></clipPath><clipPath id="clip-path-5"><rect id="máscara-4" data-name="máscara" class="cls-2" y="1179.5" width="1920" height="1079"/></clipPath></defs><title>SITE</title><g class="cls-3"><g id="SITE"><g id="FUNDO"><g class="cls-4"><g id="FUNDO-2" data-name="FUNDO" class="cls-5"><path class="cls-6" d="M2197,205s144.9131,177.3262,204,386c79,279,98.2672,339.0191,273,406,120,46,208.3937,243.1527,155,282S1821.9376,992.8109,1821.9376,992.8109Z"/></g></g></g><g id="FUNDO-3" data-name="FUNDO"><g class="cls-7"><g id="FUNDO-4" data-name="FUNDO" class="cls-5"><rect class="cls-8" x="-0.5" y="226" width="1921" height="853.6013"/><path class="cls-9" d="M725.5,1101s77.1856,4.4149,209-56c168-77,472-116,636.6217-97.9776,85.194,9.3268-159.2318,299.9637-159.2318,299.9637Z"/><g class="cls-10"><path class="cls-6" d="M149.5,693s-33.4027-169.0637,629.2053-68.1234,673.33-33.4387,695.453-145.1434,31.1172-200.6521,155.0439-179.6645,321.81,415.754,60.9639,591.65-297.4251,0-631.427,132.9214-471.98,76.1981-635.8831-46.7292S205.138,888.8874,155.1675,853.9081,149.5,693,149.5,693Z"/><path class="cls-11" d="M1565.24,349.04s5.9965,71.9574-23.9858,114.932c-32.3584,46.38,47.9716,89.9468,127.9243,64.9616,58.7724-18.3664,93.9444,13.9917,111.9338,26.984s16.99-98.9415,16.99-98.9415L1627.2034,349.04Z"/><path class="cls-11" d="M1599.22,986.6625s-97.9421-27.9834-52.9687-147.9125,20.9876-109.935-11.9929-146.9131-10.9935-70.958,11.9929-74.9557,78.9533,11.9929,103.9385,0,22.9864-23.9858,68.9592,12.9923,97.9421-10.9935,122.9273,18.9888-36.9781,209.8758-68.9592,242.8563S1599.22,986.6625,1599.22,986.6625Z"/><path class="cls-6" d="M1765.3606,155.0769a122.3377,122.3377,0,0,0-105.8159,18.6223c-71.8679,52.1853-139.3627,81.8464-114.7589,189.1187,19.7357,86.0479,54.533,110.95,138.3845,120.1427,80.0966,8.7808,1.9988,126.3808,89.9468,161.1325s256.8541-136.6053,256.8541-136.6053L1806.5694,166.9722Z"/><path class="cls-11" d="M614.8094,579.9032s-73.3589,192.8659,48.971,134.92c75.9551-35.9787,119.929-47.9716,179.8936-13.9917S850.67,812.7654,917.63,838.75c61.7186,23.9505,3.9976,91.9456-15.9905,129.9231s33.1529,40.0921,97.9421,33.98c105.9373-9.9941,159.9054-61.9633,191.8865-208.8764,34.8948-160.2982,93.9444-178.8942,93.9444-178.8942Z"/><path class="cls-11" d="M169.5,649s186.4554,5.8588,204.4448,42.837,35.9787,54.9675,75.9551,46.9722,63.9622-91.9456,61.9633-158.906S213.5,600,213.5,600Z"/><path class="cls-11" d="M1405.3346,555.9174s85.9492-2.9982,79.9527,60.9639,34.54,115.4578,47.9716,131.922c30.9817,37.9775-35.9787,53.9681-31.9811,79.9527s1.7276,78.467-26.984,62.9628c-49.97-26.984-110.9344-196.8835-111.9338-274.8374S1405.3346,555.9174,1405.3346,555.9174Z"/><path class="cls-11" d="M559.8348,890.7193S556.5177,815.9923,586.5,803s67.2792.7707,89.2662-23.2151,39.0643-28.4732,44.9734-17.9894C751.7213,816.763,628.4941,819.0124,618.5,840s-39.6764,64.711-49.6705,62.7122S559.8348,890.7193,559.8348,890.7193Z"/><path class="cls-11" d="M504.8673,990.6566s66.2709-76.36,162.9036-101.94c67.96-17.9894,94.9438-32.98,107.9361-59.9645,12.3393-25.6278,6.1331-78.0329,18.9888-61.9633,15.9905,19.9882,6.9959,73.9562,14.9911,101.94s19.9882.9994,41.9752,38.9769-13.92,95.1378,34.9793,130.9225c31.7849,23.26,32.8057,35.7056,29.6266,41.568a10.032,10.032,0,0,1-6.7273,4.87c-22.5115,4.9716-220.5287,47.4466-265.7556,13.5264C595.8135,1062.614,504.8673,990.6566,504.8673,990.6566Z"/><path class="cls-6" d="M944.4549,1066.4843s-42.8223-38.846,2.1511-79.8218,79.9527-31.9811,82.9509-83.95,67.96-60.9639,89.9468-51.9693,32.47,15.67,51.9693,20.9876c43.974,11.9929,83.8753,89.099,66.2583,96.3389C1165.8884,997.5939,944.4549,1066.4843,944.4549,1066.4843Z"/><path class="cls-11" d="M1357.51,894.3081c-8.48,6.4173-38.6885,18.0546-91.9926,8.5974-48.561-8.6157,14.1374-131.6942,26.3246-153.9851,1.8044-3.3,5.39-8.9406,8.9249-10.226,3.5464-1.29,15.827-1.41,18.8361,3.7484C1325.621,752.76,1389.32,870.2352,1357.51,894.3081Z"/></g><path class="cls-12" d="M1833.9736,634.78c-17.6-8.6649-28.9829-10.9935-54.6376-10.6637-25.645.34-37.308-10.3238-70.2885-29.3126s-25.9846-6.9959-63.9622,1.9988-180.893-44.9734-180.7032-65.821c.18-20.8577,19.7983-44.1139,42.7847-83.0909s4.997-146.9131,4.997-146.9131l15.9905-8.9947s34.9793,113.9326,0,168.9c-47.1121,74.0262-32.98,64.9616,0,75.9551,13.572,4.5273,95.9432,44.9734,137.9184,26.984s43.974,9.9941,67.37,23.0063C1756.8293,599.84,1871.5,615,1871.5,615S1851.5731,643.4445,1833.9736,634.78Z"/><path class="cls-12" d="M1572.5,970c-5.9965-10.9935-154.6262-56.8723-162.6815-92.7311-5.4967-24.4855-13.492-41.4755-26.4843-83.4506s-53.4684-178.3945-55.4672-187.3891-22.4867,32.4808-36.4784,52.469-37.1281,62.0034-51.9693,102.9391c-16.49,45.4731-37.4778,147.4128-89.4471,202.38s-146.9131,54.9675-146.9131,54.9675c-132.9214-7.9953-181.8924,37.9775-179.8936,20.9876s85.4494-173.3974,48.971-187.8888c-43.4743-17.27-28.9829-61.9633-28.4831-77.4542.4-12.3527,8.5849-60.3243-83.4506-71.4577-78.4536-9.4944-74.6558,38.4472-134.42,45.4731-33.98,3.9976-71.9574-1.9988-73.9562-33.98-3.418-54.6976,15.9905-115.9314,21.4873-130.4228,6.2763-16.56-16.49-19.4885-25.4849-5.4967-7.2657,11.3033-17.21,89.4571-20.9876,120.9285-.68,5.6466-.7009,16.2646-.77,21.947-.23,19.0288-6.2263,17.03-65.1914,30.0223-88.9574,19.5984-79.9527-21.987-99.9409-39.9763S173.5,673,173.5,673s-13.03,24.6312,28,26c65.0483,2.17,136.1976,16.8269,153.9422,50.3446,22.4867,42.4749,37.9775,39.9763,108.9356,23.9858s70.3284-3.6679,69.9586,13.9917c-1.4991,72.4571-24.9852,145.9137-15.9905,158.906s74.9557,11.9929,74.9557,11.9929c69.9586,1.9988,143.605,68.8792,165.9019,88.9474,19.9882,17.9894,26.984,39.9763,38.9769,30.9817s91.0262-42.3549,189.8877-37.9775c56.4666,2.4985,82.9509.9994,117.4305-14.4914,34.06-15.301,63.4625-55.4672,94.4441-81.4518s84.45,17.49,140.9166,0c22.037-6.826,61.9633-16.99,88.9474-17.9894s125.9421,68.9675,131.9385,62.971S1578.4965,980.9935,1572.5,970ZM582.308,920.2435c-7.1158,13.0423-27.3039,10.1939-31.4814,9.4944-4.4973-.75-10.9935-2.9982-10.9935-8.9947,0-21.3474,22.9864-109.935,21.987-148.9119-.33-12.9923,23.4861,7.4956,67.46,1.4991s74.9557-48.971,100.94-46.9722,34.48,59.4648,13.492,83.4506c-17.9593,20.5279-28.4831,20.4879-42.4749,19.4885s-54.9675,2.9982-91.9456,55.9669C609.2921,885.2642,588.3045,909.25,582.308,920.2435Zm210.3755,114.4323c-5.9664,4.7272-100.4406-78.4536-140.4169-85.4494s-38.9769-8.9947-42.9746-12.9923-1.4991-14.4914-1.4991-14.4914,50.97-77.9539,90.4465-72.4571c32.6607,4.5474,64.9616-11.9929,74.9557-54.9675,11.5632-49.7306-9.9941-74.9557,11.9929-62.9628s39.4766,29.4826,38.4772,39.4766-11.9429,72.3571,13.492,84.45c30.482,14.4914,15.4908,41.4755,11.9929,49.97C845.2725,914.6767,821.6664,1011.6894,792.6836,1034.6758Zm588.152-126.4252c-10.9935,8.9947-45.4731,16.49-72.9568,12.9923-13.532-1.719-47.8417-9.9042-69.5189-11.713a14.41,14.41,0,0,1-12.6424-18.3192c13.6418-47.6117,53.4484-180.6431,81.1619-211.8246,0,0,7.9953-13.9917,13.9917,4.997s48.971,151.91,53.9681,169.8995S1391.8291,899.2559,1380.8356,908.2506Z"/><path class="cls-9" d="M-319.0628,530.1272S219.403,695.0863,283.5,767c82,92,28,133,131,149,166.86,25.92,383.0161,279.957,287,279s-857.0034,1.4794-857.0034,1.4794Z"/><path class="cls-13" d="M-98.5,170s319,118,306,305c-15.3893,221.3689-78,336,78,363,225.7507,39.0722,316,234,292,397-29.5991,201.0271-630-74-630-74l-5.6023-942.0538Z"/><path class="cls-6" d="M-102.5,205s144.9131,177.3262,204,386c79,279,98.2672,339.0191,273,406,120,46,208.3937,243.1527,155,282S-477.5624,992.8109-477.5624,992.8109Z"/><path class="cls-9" d="M582.5-13s-394,1-446,151C81.2733,297.3079-48.7768,263.4166-101.63,330.8819s8.1933-402.4138,8.1933-402.4138Z"/><path class="cls-9" d="M1168.5-112s148.9763,147.2616,328,150c523,8-16,502,448,255,146.05-77.7464,62-440,62-440Z"/><path class="cls-9" d="M2052.5,799s-119-359-308-76c-154.6087,231.5041-79,190-243,310C1448.3462,1071.8931,2052.5,799,2052.5,799Z"/><path class="cls-13" d="M2046.5,660s-212.0137-22.1769-289-197c-48-109-27-175,14-262,43.2834-91.8452-14-153-140-179-164.4549-33.9351-36-211,124-196s307,163,307,163Z"/><path class="cls-6" d="M2016.5,195s-165,196-191,413c-18.3965,153.54-83.1267,346-237,346-99,0-245,62-259,233s703-54,703-54Z"/></g></g></g><g id="_1_PÁG-2" data-name="1ª PÁG"><g class="cls-15"><g id="FUNDO-6" data-name="FUNDO" class="cls-5"><path class="cls-9" d="M1459,1163.5s72,214,170,172c162.3117-69.5622,216.2073,41.5361,216,101s-130.936,203.1524-32,296c130,122,264.4231,27.7849,274,175s276.8985-443.6831,276.8985-443.6831-383.9745-498.5815-393.4036-495.251S1521.8875,1133.1764,1522,1139.5,1459,1163.5,1459,1163.5Z"/><path class="cls-9" d="M549,1116.5s-284-27-342,149c-41.8843,127.0972-182,63-236,178-36.4271,77.5762-15-365-15-365Z"/><path class="cls-11" d="M1517,1044.5s-230,136,166,165c166.1983,12.1711,187.8283,165.5919,152,263-64,174,88.6546,340.3823,274,327,236.6013-17.083,301.0627-444.6957,193.7624-616.7615s-530.0615-136.8207-591.8772-121.694C1652.4754,1075.3379,1517,1044.5,1517,1044.5Z"/></g></g></g></g></g></svg>