<svg id="Camada_1" data-name="Camada 1" xmlns="http://www.w3.org/2000/svg" xmlns:xlink="http://www.w3.org/1999/xlink" width="1012.6905" height="437" viewBox="0 0 1012.6905 437"><defs><style>.cls-1{fill:none;}.cls-2{fill:#0091d5;}.cls-3{fill:#808285;}.cls-4{clip-path:url(#clip-path);}.cls-5{fill:#00c0f3;}.cls-6{fill:#034ea2;}</style><clipPath id="clip-path"><circle class="cls-1" cx="227" cy="227" r="225.4574" transform="translate(-55.9609 75.3718) rotate(-16.8148)"/></clipPath></defs><title>LOGO</title><path class="cls-2" d="M518.551,80.707a2.7266,2.7266,0,0,1,2.7266-2.7266h34.8017q43.1734,0,43.1742,37.8607,0,19.0979-10.71,29.1428Q577.8324,155.0332,557.242,155.03H535.8906a2.7266,2.7266,0,0,0-2.7266,2.7266v33.0714a2.7266,2.7266,0,0,1-2.7266,2.7266h-9.16a2.7266,2.7266,0,0,1-2.7266-2.7266Zm38.1926,60.7072q14.2793,0,20.5077-5.8119t6.2271-19.0963q0-13.2844-6.2271-18.9309-6.2271-5.6433-21.172-5.6454H535.8906a2.7266,2.7266,0,0,0-2.7266,2.7266v44.0314a2.7266,2.7266,0,0,0,2.7266,2.7266Z"/><path class="cls-2" d="M616.425,77.98h9.16a2.7266,2.7266,0,0,1,2.7266,2.7266V176.88a2.7266,2.7266,0,0,0,2.7266,2.7266h46.6877a2.7266,2.7266,0,0,1,2.7266,2.7266v8.4951a2.7266,2.7266,0,0,1-2.7266,2.7266H616.425a2.7266,2.7266,0,0,1-2.7266-2.7266V80.707A2.7266,2.7266,0,0,1,616.425,77.98Z"/><path class="cls-2" d="M701.5664,182.18q-11.5428-13.3638-11.5406-36.4488V80.707a2.7266,2.7266,0,0,1,2.7266-2.7266h9.16a2.7266,2.7266,0,0,1,2.7266,2.7266v64.5256q0,16.9379,7.5552,26.8185t21.8363,9.88q14.2793,0,21.8363-9.88,7.5544-9.8773,7.5552-26.8185V80.707a2.7266,2.7266,0,0,1,2.7266-2.7266h9.16a2.7266,2.7266,0,0,1,2.7266,2.7266v65.024q0,23.0839-11.5406,36.4488Q754.95,195.5485,734.03,195.5474,713.1073,195.5474,701.5664,182.18Z"/><path class="cls-2" d="M862.2927,192.08l-21.8891-42.3824a2.7266,2.7266,0,0,0-2.4225-1.4754H814.1389a2.7266,2.7266,0,0,0-2.7266,2.7266v39.88a2.7266,2.7266,0,0,1-2.7266,2.7266h-9.16a2.7266,2.7266,0,0,1-2.7266-2.7266V80.707a2.7266,2.7266,0,0,1,2.7266-2.7266h36.4617q20.7568,0,30.8866,8.7179,10.1271,8.7179,10.13,25.49,0,12.4541-5.48,21.0887a29.1064,29.1064,0,0,1-13.317,11.2053,2.74,2.74,0,0,0-1.3693,3.7848l21.7178,41.2923a2.7266,2.7266,0,0,1-2.4131,3.9957h-11.427A2.7266,2.7266,0,0,1,862.2927,192.08Zm-7.1256-62.7043q6.06-5.0643,6.0616-17.1871,0-11.1228-6.0616-15.692-6.0633-4.5649-19.18-4.5665H814.1389a2.7266,2.7266,0,0,0-2.7266,2.7266v37.0563a2.7266,2.7266,0,0,0,2.7266,2.7266h22.0152Q849.106,134.439,855.1671,129.3752Z"/><path class="cls-2" d="M899.8214,77.98h9.16a2.7266,2.7266,0,0,1,2.7266,2.7266V190.8284a2.7266,2.7266,0,0,1-2.7266,2.7266h-9.16a2.7266,2.7266,0,0,1-2.7266-2.7266V80.707A2.7266,2.7266,0,0,1,899.8214,77.98Z"/><path class="cls-2" d="M950.5643,193.0566a104.518,104.518,0,0,1-18.1548-6.0788,2.7231,2.7231,0,0,1-1.6064-2.4938v-9.5024a2.7271,2.7271,0,0,1,3.9691-2.42,101.069,101.069,0,0,0,16.3726,6.7126,63.94,63.94,0,0,0,18.5158,2.8238q11.4568,0,17.7676-5.1481,6.3081-5.1454,6.31-14.1147A15.4635,15.4635,0,0,0,990.251,152.54a25.37,25.37,0,0,0-8.8011-6.6422,136.9578,136.9578,0,0,0-14.28-5.48,135.5133,135.5133,0,0,1-17.3525-6.9741,32.1167,32.1167,0,0,1-11.2087-9.4649q-4.6508-6.1427-4.65-15.9417,0-14.6109,10.6271-23.3309,10.6249-8.7179,28.5612-8.7179a69.6123,69.6123,0,0,1,30.5242,6.7169,2.7207,2.7207,0,0,1,1.5246,2.4563V94.197a2.731,2.731,0,0,1-3.975,2.422q-14.3573-7.1791-28.0738-7.18-11.4568,0-17.9331,4.5665a14.523,14.523,0,0,0-6.4768,12.5374,13.0594,13.0594,0,0,0,3.3211,9.133,25.1861,25.1861,0,0,0,8.1373,5.8941q4.813,2.2427,13.6163,5.3968a140.27,140.27,0,0,1,17.9341,7.1406,32.9945,32.9945,0,0,1,11.8725,10.13q4.8957,6.6438,4.8984,17.1039a34.2526,34.2526,0,0,1-4.65,18.0163,31.0281,31.0281,0,0,1-13.2844,11.9557,44.7034,44.7034,0,0,1-19.9266,4.2346A86.7064,86.7064,0,0,1,950.5643,193.0566Z"/><path class="cls-3" d="M533.9438,237.3238a9.0625,9.0625,0,0,1,2.9775,4.0246,15.5549,15.5549,0,0,1,1.0059,5.7491,13.4689,13.4689,0,0,1-1.1706,5.7285,9.0095,9.0095,0,0,1-8.563,5.4012,11.6622,11.6622,0,0,1-2.8334-.3284,19.7478,19.7478,0,0,1-2.7922-.9452v10.3493h-3.6138V241.1012l-.904-4.7638h3.6138l.5344,2.7521a8.8338,8.8338,0,0,1,6.9815-3.2442A7.7108,7.7108,0,0,1,533.9438,237.3238Zm-1.54,15.4827a9.4276,9.4276,0,0,0,1.6226-5.709,11.5286,11.5286,0,0,0-1.253-5.7079,4.1912,4.1912,0,0,0-3.9216-2.2177,7.2277,7.2277,0,0,0-3.3883.78,10.6846,10.6846,0,0,0-2.8952,2.299v11.9513a17.81,17.81,0,0,0,5.2559.8216A5.3418,5.3418,0,0,0,532.4036,252.8065Z"/><path class="cls-3" d="M562.9365,248.2475H547.7421a8.2711,8.2711,0,0,0,2.1147,5.03,6.4116,6.4116,0,0,0,4.8668,1.8687,8.9076,8.9076,0,0,0,3.5932-.76,15.3207,15.3207,0,0,0,3.552-2.2383h.1648v3.6138a13.4012,13.4012,0,0,1-3.5726,1.91,11.765,11.765,0,0,1-3.7785.5962,10.9959,10.9959,0,0,1-5.709-1.4373,9.5445,9.5445,0,0,1-3.7157-4.0051,12.9087,12.9087,0,0,1-1.2942-5.8922,13.371,13.371,0,0,1,1.1706-5.6884,9.3288,9.3288,0,0,1,3.3471-3.9628,9.0241,9.0241,0,0,1,5.0923-1.4373,8.72,8.72,0,0,1,5.0717,1.4579,9.0527,9.0527,0,0,1,3.203,4.004,14.5029,14.5029,0,0,1,1.0883,5.7491Zm-13.3875-7.556a8.6324,8.6324,0,0,0-1.8069,4.7638H559.2a9.2455,9.2455,0,0,0-1.6638-4.805,4.637,4.637,0,0,0-3.9216-1.8069A4.9913,4.9913,0,0,0,549.549,240.6915Z"/><path class="cls-3" d="M588.9322,236.2973l-.904,4.7638v26.2417h-3.6138v-11.95a9.6518,9.6518,0,0,1-7.1051,2.8746,6.9941,6.9941,0,0,1-6.1187-3.0805,13.5315,13.5315,0,0,1-2.1353-7.8844,14.0966,14.0966,0,0,1,1.1706-5.8727,9.4768,9.4768,0,0,1,3.3677-4.0658,9.1453,9.1453,0,0,1,5.2353-1.4785,10.9336,10.9336,0,0,1,3.06.4108,19.6041,19.6041,0,0,1,3.1,1.2313l.33-1.19ZM581.3957,254.1a11.5706,11.5706,0,0,0,3.0187-2.3619V239.9523a15.9589,15.9589,0,0,0-5.2158-.904,5.33,5.33,0,0,0-4.62,2.2795,9.8547,9.8547,0,0,0-1.6226,5.8521,11.6111,11.6111,0,0,0,1.1706,5.5649,3.9659,3.9659,0,0,0,3.758,2.1559A7.492,7.492,0,0,0,581.3957,254.1Z"/><path class="cls-3" d="M610.8621,257.7752l-.5756-2.9981a15.5314,15.5314,0,0,1-3.6344,2.6285,9.128,9.128,0,0,1-4.0864.8628,5.6005,5.6005,0,0,1-4.5373-1.93,7.71,7.71,0,0,1-1.6226-5.1335V236.3374H600.02v14.3739a5.01,5.01,0,0,0,.904,3.1423,3.0726,3.0726,0,0,0,2.5873,1.1706,7.7462,7.7462,0,0,0,3.3873-.6991,13.8516,13.8516,0,0,0,3.06-2.0941V236.3374h3.6138v16.674l.904,4.7638Z"/><path class="cls-3" d="M640.1421,248.2475H624.9477a8.2711,8.2711,0,0,0,2.1147,5.03,6.4116,6.4116,0,0,0,4.8668,1.8687,8.9076,8.9076,0,0,0,3.5932-.76,15.3207,15.3207,0,0,0,3.552-2.2383h.1648v3.6138a13.4012,13.4012,0,0,1-3.5726,1.91,11.765,11.765,0,0,1-3.7785.5962,10.9959,10.9959,0,0,1-5.709-1.4373,9.5445,9.5445,0,0,1-3.7157-4.0051,12.9087,12.9087,0,0,1-1.2942-5.8922,13.371,13.371,0,0,1,1.1706-5.6884,9.3288,9.3288,0,0,1,3.3471-3.9628,9.0241,9.0241,0,0,1,5.0923-1.4373,8.72,8.72,0,0,1,5.0717,1.4579,9.0527,9.0527,0,0,1,3.203,4.004,14.5029,14.5029,0,0,1,1.0883,5.7491Zm-13.3875-7.556a8.6324,8.6324,0,0,0-1.8069,4.7638h11.4581a9.2455,9.2455,0,0,0-1.6638-4.805,4.637,4.637,0,0,0-3.9216-1.8069A4.9913,4.9913,0,0,0,626.7546,240.6915Z"/><path class="cls-3" d="M663.0984,237.714a7.87,7.87,0,0,1,1.5608,5.1952v14.866h-3.6138V243.4013a5.15,5.15,0,0,0-.8628-3.1824,3.096,3.096,0,0,0-2.6285-1.1294,7.83,7.83,0,0,0-3.3883.6569,13.96,13.96,0,0,0-3.0588,2.1353v15.8935h-3.6138v-16.674l-.904-4.7638h3.6138l.5756,2.9981a15.0264,15.0264,0,0,1,3.5932-2.6686,9.2787,9.2787,0,0,1,4.1276-.8216A5.6531,5.6531,0,0,1,663.0984,237.714Z"/><path class="cls-3" d="M686.67,257.7752l-.5745-3.0805a11.3812,11.3812,0,0,1-3.4707,2.67,9.553,9.553,0,0,1-4.2089.904,6.6968,6.6968,0,0,1-4.7226-1.6638,6.2657,6.2657,0,0,1,1.0677-9.6707,14.4775,14.4775,0,0,1,7.3923-1.6844,35.2125,35.2125,0,0,1,3.6138.2059v-1.4785a5.0856,5.0856,0,0,0-1.2118-3.5531,4.0488,4.0488,0,0,0-3.1412-1.3343,13.26,13.26,0,0,0-4.1688.6157,16.0153,16.0153,0,0,0-3.8392,1.93v-3.49a13.0149,13.0149,0,0,1,3.9422-1.7874,18.7079,18.7079,0,0,1,4.5991-.5127,7.2164,7.2164,0,0,1,5.36,2.0941,7.5374,7.5374,0,0,1,2.0735,5.5443v9.5277l.904,4.7638Zm-3.9834-3.3677a12.4642,12.4642,0,0,0,3.0805-2.3814v-4.0246H681.989q-6.2011,0-6.2011,3.9834a3.0736,3.0736,0,0,0,.9452,2.3608,3.4,3.4,0,0,0,2.4226.8834A7.4568,7.4568,0,0,0,682.687,254.4074Z"/><path class="cls-3" d="M699.012,257.6722a14.146,14.146,0,0,1-3.5932-1.7039V252.19a12.1373,12.1373,0,0,0,7.3913,2.8746,6.0862,6.0862,0,0,0,3.45-.8823,2.7182,2.7182,0,0,0,1.3137-2.3619,2.3213,2.3213,0,0,0-.6363-1.6833,4.3968,4.3968,0,0,0-1.5814-1.0265q-.9446-.3707-2.71-.904a31.7349,31.7349,0,0,1-3.5932-1.2118,6.2551,6.2551,0,0,1-2.4031-1.7657,4.5884,4.5884,0,0,1-.9853-3.0588,5.5719,5.5719,0,0,1,2.1765-4.6,8.918,8.918,0,0,1,5.7079-1.7245,11.5973,11.5973,0,0,1,6.4071,1.8481v3.655a11.4618,11.4618,0,0,0-3.1011-1.7657,9.3024,9.3024,0,0,0-3.1412-.5344,6.1161,6.1161,0,0,0-3.2442.7392,2.3,2.3,0,0,0-1.1912,2.0529,2.076,2.076,0,0,0,.6363,1.5608,4.7233,4.7233,0,0,0,1.5814.9864q.9446.3691,2.7109.9029a34.3828,34.3828,0,0,1,3.6138,1.253,6.1415,6.1415,0,0,1,2.3814,1.8069,4.82,4.82,0,0,1,.9853,3.1412,6.0139,6.0139,0,0,1-1.0677,3.5119,7.0765,7.0765,0,0,1-2.9569,2.402,10.1787,10.1787,0,0,1-4.2706.8628A12.9714,12.9714,0,0,1,699.012,257.6722Z"/><path class="cls-3" d="M732.1334,256.8311a9.26,9.26,0,0,1-3.45-3.9639,13.265,13.265,0,0,1-1.1912-5.7285,13.6446,13.6446,0,0,1,1.1912-5.8109,9.3561,9.3561,0,0,1,3.45-4.0246,9.5561,9.5561,0,0,1,5.2971-1.4579,13.8292,13.8292,0,0,1,3.7374.452,8.2946,8.2946,0,0,1,3.0393,1.6421v3.4913h-.1648a9.5912,9.5912,0,0,0-3.0588-1.7668,11.2236,11.2236,0,0,0-3.5943-.5333,5.1625,5.1625,0,0,0-4.4961,2.2589,9.8679,9.8679,0,0,0-1.5814,5.79,9.3572,9.3572,0,0,0,1.5814,5.606,5.1692,5.1692,0,0,0,4.456,2.1971,10.1536,10.1536,0,0,0,3.8187-.6785,11.3452,11.3452,0,0,0,3.3266-2.1559h.1648V255.64a8.9607,8.9607,0,0,1-3.2659,2.0324,12.3856,12.3856,0,0,1-4.004.5962A9.5851,9.5851,0,0,1,732.1334,256.8311Z"/><path class="cls-3" d="M751.1258,230.753a2.8427,2.8427,0,0,1,0-3.7785,2.7315,2.7315,0,0,1,3.7374,0,2.8427,2.8427,0,0,1,0,3.7785,2.7315,2.7315,0,0,1-3.7374,0Zm3.6756,5.5844v21.4378h-3.6138V236.3374Z"/><path class="cls-3" d="M778.0049,257.7752l-.5333-2.8334a9.8365,9.8365,0,0,1-3.3266,2.4638,10.11,10.11,0,0,1-4.1482.8216,6.9941,6.9941,0,0,1-6.1187-3.0805,13.5315,13.5315,0,0,1-2.1353-7.8844,14.0966,14.0966,0,0,1,1.1706-5.8727,9.4821,9.4821,0,0,1,3.3667-4.0658,9.1512,9.1512,0,0,1,5.2364-1.4785,10.8837,10.8837,0,0,1,2.7933.349A18.8587,18.8587,0,0,1,777.102,237.2V226.81h3.6138v26.2016l.904,4.7638ZM774.0833,254.1a11.5706,11.5706,0,0,0,3.0187-2.3619V239.9523a15.9638,15.9638,0,0,0-5.2158-.904,5.33,5.33,0,0,0-4.62,2.2795,9.8547,9.8547,0,0,0-1.6226,5.8521,11.6111,11.6111,0,0,0,1.1706,5.5649,3.9649,3.9649,0,0,0,3.758,2.1559A7.492,7.492,0,0,0,774.0833,254.1Z"/><path class="cls-3" d="M802.4809,257.7752l-.5745-3.0805a11.3812,11.3812,0,0,1-3.4707,2.67,9.553,9.553,0,0,1-4.2089.904,6.6968,6.6968,0,0,1-4.7226-1.6638,6.2657,6.2657,0,0,1,1.0677-9.6707,14.4775,14.4775,0,0,1,7.3923-1.6844,35.2125,35.2125,0,0,1,3.6138.2059v-1.4785a5.0856,5.0856,0,0,0-1.2118-3.5531,4.0488,4.0488,0,0,0-3.1412-1.3343,13.26,13.26,0,0,0-4.1688.6157,16.0153,16.0153,0,0,0-3.8392,1.93v-3.49a13.0149,13.0149,0,0,1,3.9422-1.7874,18.7079,18.7079,0,0,1,4.5991-.5127,7.2164,7.2164,0,0,1,5.36,2.0941,7.5374,7.5374,0,0,1,2.0735,5.5443v9.5277l.904,4.7638Zm-3.9834-3.3677a12.4642,12.4642,0,0,0,3.0805-2.3814v-4.0246h-3.7785q-6.2011,0-6.2011,3.9834a3.0736,3.0736,0,0,0,.9452,2.3608,3.4,3.4,0,0,0,2.4226.8834A7.4568,7.4568,0,0,0,798.4975,254.4074Z"/><path class="cls-3" d="M828.107,257.7752l-.5333-2.8334a9.8365,9.8365,0,0,1-3.3266,2.4638,10.11,10.11,0,0,1-4.1482.8216,6.9941,6.9941,0,0,1-6.1187-3.0805,13.5315,13.5315,0,0,1-2.1353-7.8844,14.0966,14.0966,0,0,1,1.1706-5.8727,9.4821,9.4821,0,0,1,3.3667-4.0658,9.1512,9.1512,0,0,1,5.2364-1.4785,10.8837,10.8837,0,0,1,2.7933.349,18.8587,18.8587,0,0,1,2.7922,1.0059V226.81h3.6138v26.2016l.904,4.7638ZM824.1854,254.1a11.5706,11.5706,0,0,0,3.0187-2.3619V239.9523a15.9638,15.9638,0,0,0-5.2158-.904,5.33,5.33,0,0,0-4.62,2.2795,9.8547,9.8547,0,0,0-1.6226,5.8521,11.6111,11.6111,0,0,0,1.1706,5.5649,3.9649,3.9649,0,0,0,3.758,2.1559A7.492,7.492,0,0,0,824.1854,254.1Z"/><path class="cls-3" d="M856.9772,248.2475H841.7828a8.2711,8.2711,0,0,0,2.1147,5.03,6.4116,6.4116,0,0,0,4.8668,1.8687,8.9076,8.9076,0,0,0,3.5932-.76,15.3207,15.3207,0,0,0,3.552-2.2383h.1648v3.6138a13.4012,13.4012,0,0,1-3.5726,1.91,11.765,11.765,0,0,1-3.7785.5962,10.9959,10.9959,0,0,1-5.709-1.4373,9.5445,9.5445,0,0,1-3.7157-4.0051,12.9087,12.9087,0,0,1-1.2942-5.8922,13.371,13.371,0,0,1,1.1706-5.6884,9.3288,9.3288,0,0,1,3.3471-3.9628,9.0241,9.0241,0,0,1,5.0923-1.4373,8.72,8.72,0,0,1,5.0717,1.4579,9.0527,9.0527,0,0,1,3.203,4.004,14.5029,14.5029,0,0,1,1.0883,5.7491Zm-13.3875-7.556a8.6324,8.6324,0,0,0-1.8069,4.7638h11.4581a9.2455,9.2455,0,0,0-1.6638-4.805,4.637,4.637,0,0,0-3.9216-1.8069A4.9913,4.9913,0,0,0,843.59,240.6915Z"/><path class="cls-3" d="M865.7451,257.6722a14.146,14.146,0,0,1-3.5932-1.7039V252.19a12.1373,12.1373,0,0,0,7.3913,2.8746,6.0862,6.0862,0,0,0,3.45-.8823,2.7183,2.7183,0,0,0,1.3137-2.3619,2.3213,2.3213,0,0,0-.6363-1.6833,4.3968,4.3968,0,0,0-1.5814-1.0265q-.9446-.3707-2.71-.904a31.7349,31.7349,0,0,1-3.5932-1.2118,6.2551,6.2551,0,0,1-2.4031-1.7657,4.5884,4.5884,0,0,1-.9853-3.0588,5.5719,5.5719,0,0,1,2.1765-4.6,8.918,8.918,0,0,1,5.7079-1.7245,11.5973,11.5973,0,0,1,6.4071,1.8481v3.655a11.4618,11.4618,0,0,0-3.1011-1.7657,9.3024,9.3024,0,0,0-3.1412-.5344,6.1161,6.1161,0,0,0-3.2442.7392,2.3,2.3,0,0,0-1.1912,2.0529,2.076,2.076,0,0,0,.6363,1.5608,4.7233,4.7233,0,0,0,1.5814.9864q.9446.3691,2.7109.9029a34.3828,34.3828,0,0,1,3.6138,1.253,6.1415,6.1415,0,0,1,2.3814,1.8069,4.82,4.82,0,0,1,.9853,3.1412,6.0139,6.0139,0,0,1-1.0677,3.5119,7.0765,7.0765,0,0,1-2.9569,2.402,10.1787,10.1787,0,0,1-4.2706.8628A12.9714,12.9714,0,0,1,865.7451,257.6722Z"/><path class="cls-3" d="M887.6955,252.8466a18.7689,18.7689,0,0,1-.7392,5.0933,28.2329,28.2329,0,0,1-2.6285,5.9952H880.714a19.2352,19.2352,0,0,0,1.9717-4.1677,17.1572,17.1572,0,0,0,.7587-3.43q.1447-1.4779.1442-3.4913Z"/><path class="cls-3" d="M537.3928,285.5788l-.9029,4.7638v15.318q0,5.4207-2.5049,8.4188-2.5055,2.9965-7.4335,2.9981a15.95,15.95,0,0,1-4.5178-.5344,10.4659,10.4659,0,0,1-3.655-2.1353v-3.655a12.9129,12.9129,0,0,0,3.7785,2.3207,13.0912,13.0912,0,0,0,4.3942.6363,5.69,5.69,0,0,0,4.7432-1.9922,8.7425,8.7425,0,0,0,1.5814-5.5649v-1.0677a9.7129,9.7129,0,0,1-2.7315,1.2942,12.051,12.051,0,0,1-3.2648.39q-4.6419,0-7.0021-2.7933-2.3624-2.7916-2.3608-7.8433,0-5.2158,2.4638-8.111t7.31-2.8952a11.8746,11.8746,0,0,1,3.06.349,22.4832,22.4832,0,0,1,3.1412,1.1706l.2872-1.0677Zm-7.31,17.4121a11.3358,11.3358,0,0,0,2.7933-1.4373V289.1514a14.6964,14.6964,0,0,0-2.4854-.6363,17.3463,17.3463,0,0,0-2.6892-.1854,5.5467,5.5467,0,0,0-4.7432,2.0529,9.3419,9.3419,0,0,0-1.54,5.709q0,7.3522,5.5031,7.3512A10.0021,10.0021,0,0,0,530.0829,302.9909Z"/><path class="cls-3" d="M555.1334,285.1268V289.11h-.6157a8.3177,8.3177,0,0,0-3.47.698,6.7257,6.7257,0,0,0-2.5667,2.0128v15.2356h-3.6149v-16.674l-.9029-4.7638h3.6138l.7392,3.82a15.9842,15.9842,0,0,1,2.854-3.3883,4.2219,4.2219,0,0,1,2.69-.9235Z"/><path class="cls-3" d="M574.9691,307.0567l-.5745-3.0805a11.3812,11.3812,0,0,1-3.4707,2.67,9.553,9.553,0,0,1-4.2089.904,6.6968,6.6968,0,0,1-4.7226-1.6638,6.2657,6.2657,0,0,1,1.0677-9.6707,14.4775,14.4775,0,0,1,7.3923-1.6844,35.2125,35.2125,0,0,1,3.6138.2059v-1.4785a5.0856,5.0856,0,0,0-1.2118-3.5531,4.0488,4.0488,0,0,0-3.1412-1.3343,13.26,13.26,0,0,0-4.1688.6157,16.0153,16.0153,0,0,0-3.8392,1.93v-3.49a13.0149,13.0149,0,0,1,3.9422-1.7874,18.7079,18.7079,0,0,1,4.5991-.5127,7.2164,7.2164,0,0,1,5.36,2.0941,7.5374,7.5374,0,0,1,2.0735,5.5443v9.5277l.904,4.7638Zm-3.9834-3.3677a12.4642,12.4642,0,0,0,3.0805-2.3814V297.283h-3.7785q-6.2011,0-6.2011,3.9834a3.0736,3.0736,0,0,0,.9452,2.3608,3.4,3.4,0,0,0,2.4226.8834A7.4568,7.4568,0,0,0,570.9857,303.689Z"/><path class="cls-3" d="M601.4992,286.9955a7.87,7.87,0,0,1,1.5608,5.1952v14.866h-3.6138V292.6829a5.15,5.15,0,0,0-.8628-3.1824,3.096,3.096,0,0,0-2.6285-1.1294,7.83,7.83,0,0,0-3.3883.6569,13.96,13.96,0,0,0-3.0588,2.1353v15.8935H585.894v-16.674l-.904-4.7638h3.6138l.5756,2.9981a15.0264,15.0264,0,0,1,3.5932-2.6686,9.2787,9.2787,0,0,1,4.1276-.8216A5.6531,5.6531,0,0,1,601.4992,286.9955Z"/><path class="cls-3" d="M626.8781,307.0567l-.5333-2.8334a9.8365,9.8365,0,0,1-3.3266,2.4638,10.11,10.11,0,0,1-4.1482.8216,6.9941,6.9941,0,0,1-6.1187-3.0805,13.5315,13.5315,0,0,1-2.1353-7.8844,14.0966,14.0966,0,0,1,1.1706-5.8727,9.4821,9.4821,0,0,1,3.3667-4.0658,9.1512,9.1512,0,0,1,5.2364-1.4785,10.8837,10.8837,0,0,1,2.7933.349,18.8587,18.8587,0,0,1,2.7922,1.0059v-10.39h3.6138v26.2016l.904,4.7638Zm-3.9216-3.6756a11.5706,11.5706,0,0,0,3.0187-2.3619V289.2338a15.9638,15.9638,0,0,0-5.2158-.904,5.33,5.33,0,0,0-4.62,2.2795,9.8547,9.8547,0,0,0-1.6226,5.8521,11.6111,11.6111,0,0,0,1.1706,5.5649,3.9649,3.9649,0,0,0,3.758,2.1559A7.492,7.492,0,0,0,622.9565,303.3812Z"/><path class="cls-3" d="M655.7484,297.5291H640.554a8.2711,8.2711,0,0,0,2.1147,5.03,6.4116,6.4116,0,0,0,4.8668,1.8687,8.9076,8.9076,0,0,0,3.5932-.76,15.3207,15.3207,0,0,0,3.552-2.2383h.1648v3.6138a13.4012,13.4012,0,0,1-3.5726,1.91,11.765,11.765,0,0,1-3.7785.5962,10.9959,10.9959,0,0,1-5.709-1.4373,9.5445,9.5445,0,0,1-3.7157-4.0051,12.9087,12.9087,0,0,1-1.2942-5.8922,13.371,13.371,0,0,1,1.1706-5.6884,9.3288,9.3288,0,0,1,3.3471-3.9628,9.0241,9.0241,0,0,1,5.0923-1.4373,8.72,8.72,0,0,1,5.0717,1.4579,9.0527,9.0527,0,0,1,3.203,4.004,14.5029,14.5029,0,0,1,1.0883,5.7491Zm-13.3875-7.556a8.6324,8.6324,0,0,0-1.8069,4.7638h11.4581a9.2455,9.2455,0,0,0-1.6638-4.805,4.637,4.637,0,0,0-3.9216-1.8069A4.9913,4.9913,0,0,0,642.3608,289.9731Z"/><path class="cls-3" d="M664.5162,306.9538a14.146,14.146,0,0,1-3.5932-1.7039v-3.7785a12.1373,12.1373,0,0,0,7.3913,2.8746,6.0862,6.0862,0,0,0,3.45-.8823,2.7183,2.7183,0,0,0,1.3137-2.3619,2.3213,2.3213,0,0,0-.6363-1.6833,4.3968,4.3968,0,0,0-1.5814-1.0265q-.9446-.3707-2.71-.904a31.7349,31.7349,0,0,1-3.5932-1.2118,6.2551,6.2551,0,0,1-2.4031-1.7657,4.5884,4.5884,0,0,1-.9853-3.0588,5.5719,5.5719,0,0,1,2.1765-4.6,8.918,8.918,0,0,1,5.7079-1.7245,11.5973,11.5973,0,0,1,6.4071,1.8481v3.655a11.4618,11.4618,0,0,0-3.1011-1.7657,9.3024,9.3024,0,0,0-3.1412-.5344,6.1161,6.1161,0,0,0-3.2442.7392,2.3,2.3,0,0,0-1.1912,2.0529,2.076,2.076,0,0,0,.6363,1.5608,4.7233,4.7233,0,0,0,1.5814.9864q.9446.3691,2.7109.9029a34.3828,34.3828,0,0,1,3.6138,1.253,6.1415,6.1415,0,0,1,2.3814,1.8069,4.82,4.82,0,0,1,.9853,3.1412,6.0139,6.0139,0,0,1-1.0677,3.5119,7.0765,7.0765,0,0,1-2.9569,2.402,10.1787,10.1787,0,0,1-4.2706.8628A12.9714,12.9714,0,0,1,664.5162,306.9538Z"/><path class="cls-3" d="M709.8339,307.0567l-.5333-2.8334a9.8365,9.8365,0,0,1-3.3266,2.4638,10.11,10.11,0,0,1-4.1482.8216,6.9941,6.9941,0,0,1-6.1187-3.0805,13.5315,13.5315,0,0,1-2.1353-7.8844,14.0966,14.0966,0,0,1,1.1706-5.8727,9.4821,9.4821,0,0,1,3.3667-4.0658,9.1512,9.1512,0,0,1,5.2364-1.4785,10.8837,10.8837,0,0,1,2.7933.349,18.8587,18.8587,0,0,1,2.7922,1.0059v-10.39h3.6138v26.2016l.904,4.7638Zm-3.9216-3.6756a11.5706,11.5706,0,0,0,3.0187-2.3619V289.2338a15.9638,15.9638,0,0,0-5.2158-.904,5.33,5.33,0,0,0-4.62,2.2795,9.8547,9.8547,0,0,0-1.6226,5.8521,11.6111,11.6111,0,0,0,1.1706,5.5649,3.9649,3.9649,0,0,0,3.758,2.1559A7.492,7.492,0,0,0,705.9122,303.3812Z"/><path class="cls-3" d="M738.7041,297.5291H723.51a8.2711,8.2711,0,0,0,2.1147,5.03,6.4116,6.4116,0,0,0,4.8668,1.8687,8.9076,8.9076,0,0,0,3.5932-.76,15.3207,15.3207,0,0,0,3.552-2.2383h.1648v3.6138a13.4012,13.4012,0,0,1-3.5726,1.91,11.765,11.765,0,0,1-3.7785.5962,10.9959,10.9959,0,0,1-5.709-1.4373,9.5445,9.5445,0,0,1-3.7157-4.0051,12.9087,12.9087,0,0,1-1.2942-5.8922,13.371,13.371,0,0,1,1.1706-5.6884,9.3288,9.3288,0,0,1,3.3471-3.9628,9.0241,9.0241,0,0,1,5.0923-1.4373,8.72,8.72,0,0,1,5.0717,1.4579,9.0527,9.0527,0,0,1,3.203,4.004,14.5029,14.5029,0,0,1,1.0883,5.7491Zm-13.3875-7.556a8.6324,8.6324,0,0,0-1.8069,4.7638h11.4581a9.2455,9.2455,0,0,0-1.6638-4.805,4.637,4.637,0,0,0-3.9216-1.8069A4.9913,4.9913,0,0,0,725.3166,289.9731Z"/><path class="cls-3" d="M747.4719,306.9538a14.146,14.146,0,0,1-3.5932-1.7039v-3.7785a12.1373,12.1373,0,0,0,7.3913,2.8746,6.0862,6.0862,0,0,0,3.45-.8823,2.7182,2.7182,0,0,0,1.3137-2.3619,2.3213,2.3213,0,0,0-.6363-1.6833,4.3968,4.3968,0,0,0-1.5814-1.0265q-.9446-.3707-2.71-.904a31.7349,31.7349,0,0,1-3.5932-1.2118A6.2551,6.2551,0,0,1,745.11,294.51a4.5884,4.5884,0,0,1-.9853-3.0588,5.5719,5.5719,0,0,1,2.1765-4.6,8.918,8.918,0,0,1,5.7079-1.7245,11.5973,11.5973,0,0,1,6.4071,1.8481v3.655a11.4618,11.4618,0,0,0-3.1011-1.7657,9.3024,9.3024,0,0,0-3.1412-.5344,6.1161,6.1161,0,0,0-3.2442.7392,2.3,2.3,0,0,0-1.1912,2.0529,2.076,2.076,0,0,0,.6363,1.5608,4.7233,4.7233,0,0,0,1.5814.9864q.9446.3691,2.7109.9029a34.3828,34.3828,0,0,1,3.6138,1.253,6.1415,6.1415,0,0,1,2.3814,1.8069,4.82,4.82,0,0,1,.9853,3.1412,6.0139,6.0139,0,0,1-1.0677,3.5119,7.0765,7.0765,0,0,1-2.9569,2.402,10.1787,10.1787,0,0,1-4.2706.8628A12.9714,12.9714,0,0,1,747.4719,306.9538Z"/><path class="cls-3" d="M779.4834,307.0567l-.5745-3.0805a11.3812,11.3812,0,0,1-3.4707,2.67,9.553,9.553,0,0,1-4.2089.904,6.6968,6.6968,0,0,1-4.7226-1.6638,6.2657,6.2657,0,0,1,1.0677-9.6707,14.4775,14.4775,0,0,1,7.3923-1.6844,35.2125,35.2125,0,0,1,3.6138.2059v-1.4785a5.0856,5.0856,0,0,0-1.2118-3.5531,4.0488,4.0488,0,0,0-3.1412-1.3343,13.26,13.26,0,0,0-4.1688.6157,16.0153,16.0153,0,0,0-3.8392,1.93v-3.49a13.0149,13.0149,0,0,1,3.9422-1.7874,18.7079,18.7079,0,0,1,4.5991-.5127,7.2164,7.2164,0,0,1,5.36,2.0941,7.5374,7.5374,0,0,1,2.0735,5.5443v9.5277l.904,4.7638ZM775.5,303.689a12.4642,12.4642,0,0,0,3.0805-2.3814V297.283h-3.7785q-6.2011,0-6.2011,3.9834a3.0736,3.0736,0,0,0,.9452,2.3608,3.4,3.4,0,0,0,2.4226.8834A7.4568,7.4568,0,0,0,775.5,303.689Z"/><path class="cls-3" d="M790.9,288.7406h-4.107v-3.1217H790.9v-2.4638a8.4392,8.4392,0,0,1,1.6638-5.5649,6.1323,6.1323,0,0,1,4.9893-1.9912,7.1081,7.1081,0,0,1,1.602.1637,14.5068,14.5068,0,0,1,1.6833.5344v3.1206a9.5889,9.5889,0,0,0-1.3549-.5127,4.6055,4.6055,0,0,0-1.1912-.1442,3.5291,3.5291,0,0,0-2.8746,1.0883,4.3881,4.3881,0,0,0-.904,2.8952v2.8746h5.9139v3.1217h-5.9139v18.3161H790.9Zm13.614-8.7061a2.8427,2.8427,0,0,1,0-3.7785,2.7315,2.7315,0,0,1,3.7374,0,2.8427,2.8427,0,0,1,0,3.7785,2.7315,2.7315,0,0,1-3.7374,0Zm3.6756,5.5844v21.4378h-3.6138V285.6189Z"/><path class="cls-3" d="M817.9637,304.49a13.956,13.956,0,0,1,0-16.3043,10.2641,10.2641,0,0,1,14.62,0,13.956,13.956,0,0,1,0,16.3043,10.2615,10.2615,0,0,1-14.62,0Zm11.8277-2.2795a12.1073,12.1073,0,0,0,0-11.7454,5.1186,5.1186,0,0,0-4.5178-2.2177,5.0664,5.0664,0,0,0-4.4972,2.2177,12.2606,12.2606,0,0,0,0,11.7454,5.0664,5.0664,0,0,0,4.4972,2.2177A5.1186,5.1186,0,0,0,829.7914,302.2105Z"/><path class="cls-3" d="M844.3907,306.9538a14.146,14.146,0,0,1-3.5932-1.7039v-3.7785a12.1373,12.1373,0,0,0,7.3913,2.8746,6.0862,6.0862,0,0,0,3.45-.8823,2.7183,2.7183,0,0,0,1.3137-2.3619,2.3213,2.3213,0,0,0-.6363-1.6833,4.3968,4.3968,0,0,0-1.5814-1.0265q-.9446-.3707-2.71-.904a31.7349,31.7349,0,0,1-3.5932-1.2118,6.2551,6.2551,0,0,1-2.4031-1.7657,4.5884,4.5884,0,0,1-.9853-3.0588,5.5719,5.5719,0,0,1,2.1765-4.6,8.918,8.918,0,0,1,5.7079-1.7245,11.5973,11.5973,0,0,1,6.4071,1.8481v3.655a11.4618,11.4618,0,0,0-3.1011-1.7657,9.3024,9.3024,0,0,0-3.1412-.5344,6.1161,6.1161,0,0,0-3.2442.7392,2.3,2.3,0,0,0-1.1912,2.0529,2.076,2.076,0,0,0,.6363,1.5608,4.7233,4.7233,0,0,0,1.5814.9864q.9446.3691,2.7109.9029a34.3828,34.3828,0,0,1,3.6138,1.253,6.1415,6.1415,0,0,1,2.3814,1.8069,4.82,4.82,0,0,1,.9853,3.1412,6.0139,6.0139,0,0,1-1.0677,3.5119,7.0765,7.0765,0,0,1-2.9569,2.402,10.1787,10.1787,0,0,1-4.2706.8628A12.9714,12.9714,0,0,1,844.3907,306.9538Z"/><path class="cls-3" d="M866.3412,302.1281a18.7689,18.7689,0,0,1-.7392,5.0933,28.2329,28.2329,0,0,1-2.6285,5.9952H859.36a19.2352,19.2352,0,0,0,1.9717-4.1677,17.1572,17.1572,0,0,0,.7587-3.43q.1447-1.4779.1442-3.4913Z"/><path class="cls-3" d="M547.29,336.2771a7.87,7.87,0,0,1,1.5608,5.1952v14.866h-3.6138V341.9644a5.1427,5.1427,0,0,0-.8628-3.1824,3.0953,3.0953,0,0,0-2.6274-1.1294,6.3979,6.3979,0,0,0-3.0393.6569,14.4353,14.4353,0,0,0-2.8334,2.1353,9.5955,9.5955,0,0,1,.04,1.0276v14.866h-3.6138V341.9644a5.15,5.15,0,0,0-.8617-3.1824,3.0974,3.0974,0,0,0-2.6285-1.1294,6.5753,6.5753,0,0,0-3.0393.6363,12.8794,12.8794,0,0,0-2.7922,2.1147v15.9347h-3.6138v-16.674l-.904-4.7638h3.6138l.5756,2.9569a14.9461,14.9461,0,0,1,3.3461-2.648,7.91,7.91,0,0,1,3.758-.801,6.2749,6.2749,0,0,1,3.5531.9441,5.424,5.424,0,0,1,2.0735,2.7109,16.6915,16.6915,0,0,1,3.49-2.8128,7.8059,7.8059,0,0,1,3.82-.8422A5.6517,5.6517,0,0,1,547.29,336.2771Z"/><path class="cls-3" d="M572.2593,356.3383l-.5756-2.9981a15.5314,15.5314,0,0,1-3.6344,2.6285,9.128,9.128,0,0,1-4.0864.8628,5.6005,5.6005,0,0,1-4.5373-1.93,7.71,7.71,0,0,1-1.6226-5.1335V334.9005h3.6138v14.3739a5.01,5.01,0,0,0,.904,3.1423,3.0726,3.0726,0,0,0,2.5873,1.1706,7.7462,7.7462,0,0,0,3.3873-.6991,13.8516,13.8516,0,0,0,3.06-2.0941V334.9005h3.6138v16.674l.904,4.7638Zm-3.1217-32.1144h4.4354l-5.4207,6.4472h-3.3677Z"/><path class="cls-3" d="M583.634,325.3728h3.6138v30.9655H583.634Z"/><path class="cls-3" d="M599.9383,334.9005h5.9139v3.1217h-5.9139v12.2787a4.0463,4.0463,0,0,0,.6775,2.4442,2.3147,2.3147,0,0,0,1.9922.9235,6.56,6.56,0,0,0,1.6215-.1843,10.0464,10.0464,0,0,0,1.6226-.5962v3.2041a6.8629,6.8629,0,0,1-1.8069.5951,13.0327,13.0327,0,0,1-2.0941.1442,5.241,5.241,0,0,1-4.1276-1.6844,6.4812,6.4812,0,0,1-1.4991-4.4766V338.0222h-4.107v-3.1217h4.107v-5.7491l3.6138-1.8893Z"/><path class="cls-3" d="M611.4984,329.3161a2.8427,2.8427,0,0,1,0-3.7785,2.7315,2.7315,0,0,1,3.7374,0,2.8427,2.8427,0,0,1,0,3.7785,2.7315,2.7315,0,0,1-3.7374,0Zm3.6756,5.5844v21.4378H611.56V334.9005Z"/><path class="cls-3" d="M638.255,335.8869a9.0625,9.0625,0,0,1,2.9775,4.0246,15.5549,15.5549,0,0,1,1.0059,5.7491,13.4689,13.4689,0,0,1-1.1706,5.7285,9.0095,9.0095,0,0,1-8.563,5.4012,11.6622,11.6622,0,0,1-2.8334-.3284,19.7478,19.7478,0,0,1-2.7922-.9452V365.866h-3.6138V339.6643l-.904-4.7638h3.6138l.5344,2.7521a8.8338,8.8338,0,0,1,6.9815-3.2442A7.7108,7.7108,0,0,1,638.255,335.8869Zm-1.54,15.4827a9.4276,9.4276,0,0,0,1.6226-5.709,11.5286,11.5286,0,0,0-1.253-5.7079,4.1912,4.1912,0,0,0-3.9216-2.2177,7.2277,7.2277,0,0,0-3.3883.78,10.6846,10.6846,0,0,0-2.8952,2.299v11.9513a17.81,17.81,0,0,0,5.2559.8216A5.3418,5.3418,0,0,0,636.7147,351.37Z"/><path class="cls-3" d="M649.3424,325.3728h3.6138v30.9655h-3.6138Z"/><path class="cls-3" d="M674.3528,356.3383l-.5745-3.0805a11.3812,11.3812,0,0,1-3.4707,2.67,9.553,9.553,0,0,1-4.2089.904,6.6968,6.6968,0,0,1-4.7226-1.6638,6.2657,6.2657,0,0,1,1.0677-9.6707,14.4775,14.4775,0,0,1,7.3923-1.6844,35.2125,35.2125,0,0,1,3.6138.2059V342.54a5.0856,5.0856,0,0,0-1.2118-3.5531,4.0488,4.0488,0,0,0-3.1412-1.3343,13.26,13.26,0,0,0-4.1688.6157,16.0153,16.0153,0,0,0-3.8392,1.93v-3.49a13.0149,13.0149,0,0,1,3.9422-1.7874,18.7079,18.7079,0,0,1,4.5991-.5127,7.2164,7.2164,0,0,1,5.36,2.0941,7.5374,7.5374,0,0,1,2.0735,5.5443v9.5277l.904,4.7638Zm-3.9834-3.3677a12.4642,12.4642,0,0,0,3.0805-2.3814v-4.0246h-3.7785q-6.2011,0-6.2011,3.9834a3.0736,3.0736,0,0,0,.9452,2.3608,3.4,3.4,0,0,0,2.4226.8834A7.4568,7.4568,0,0,0,670.3694,352.9706Z"/><path class="cls-3" d="M686.6943,356.2353a14.146,14.146,0,0,1-3.5932-1.7039v-3.7785a12.1373,12.1373,0,0,0,7.3913,2.8746,6.0862,6.0862,0,0,0,3.45-.8823,2.7183,2.7183,0,0,0,1.3137-2.3619A2.3213,2.3213,0,0,0,694.62,348.7a4.3968,4.3968,0,0,0-1.5814-1.0265q-.9446-.3707-2.71-.904a31.7349,31.7349,0,0,1-3.5932-1.2118,6.2551,6.2551,0,0,1-2.4031-1.7657,4.5884,4.5884,0,0,1-.9853-3.0588,5.5719,5.5719,0,0,1,2.1765-4.6,8.918,8.918,0,0,1,5.7079-1.7245,11.5973,11.5973,0,0,1,6.4071,1.8481v3.655a11.4618,11.4618,0,0,0-3.1011-1.7657,9.3024,9.3024,0,0,0-3.1412-.5344,6.1161,6.1161,0,0,0-3.2442.7392,2.3,2.3,0,0,0-1.1912,2.0529,2.076,2.076,0,0,0,.6363,1.5608,4.7233,4.7233,0,0,0,1.5814.9864q.9446.3691,2.7109.9029a34.3828,34.3828,0,0,1,3.6138,1.253,6.1415,6.1415,0,0,1,2.3814,1.8069,4.82,4.82,0,0,1,.9853,3.1412,6.0139,6.0139,0,0,1-1.0677,3.5119,7.0765,7.0765,0,0,1-2.9569,2.402,10.1787,10.1787,0,0,1-4.2706.8628A12.9714,12.9714,0,0,1,686.6943,356.2353Z"/><path class="cls-3" d="M718.5833,353.7716a13.956,13.956,0,0,1,0-16.3043,10.2641,10.2641,0,0,1,14.62,0,13.956,13.956,0,0,1,0,16.3043,10.2615,10.2615,0,0,1-14.62,0Zm11.8277-2.2795a12.1073,12.1073,0,0,0,0-11.7454,5.1186,5.1186,0,0,0-4.5178-2.2177,5.0664,5.0664,0,0,0-4.4972,2.2177,12.2606,12.2606,0,0,0,0,11.7454,5.0664,5.0664,0,0,0,4.4972,2.2177A5.1186,5.1186,0,0,0,730.411,351.4921Z"/><path class="cls-3" d="M758.1724,335.8869a9.0625,9.0625,0,0,1,2.9775,4.0246,15.5549,15.5549,0,0,1,1.0059,5.7491,13.4689,13.4689,0,0,1-1.1706,5.7285,9.0095,9.0095,0,0,1-8.563,5.4012,11.6622,11.6622,0,0,1-2.8334-.3284,19.7478,19.7478,0,0,1-2.7922-.9452V365.866h-3.6138V339.6643l-.904-4.7638h3.6138l.5344,2.7521a8.8338,8.8338,0,0,1,6.9815-3.2442A7.7108,7.7108,0,0,1,758.1724,335.8869Zm-1.54,15.4827a9.4276,9.4276,0,0,0,1.6226-5.709,11.5286,11.5286,0,0,0-1.253-5.7079,4.1912,4.1912,0,0,0-3.9216-2.2177,7.2277,7.2277,0,0,0-3.3883.78,10.6846,10.6846,0,0,0-2.8952,2.299v11.9513a17.81,17.81,0,0,0,5.2559.8216A5.3418,5.3418,0,0,0,756.6321,351.37Z"/><path class="cls-3" d="M771.1491,353.7716a13.956,13.956,0,0,1,0-16.3043,10.2641,10.2641,0,0,1,14.62,0,13.956,13.956,0,0,1,0,16.3043,10.2615,10.2615,0,0,1-14.62,0Zm11.8277-2.2795a12.1073,12.1073,0,0,0,0-11.7454,5.1186,5.1186,0,0,0-4.5178-2.2177,5.0664,5.0664,0,0,0-4.4972,2.2177,12.2606,12.2606,0,0,0,0,11.7454,5.0664,5.0664,0,0,0,4.4972,2.2177A5.1186,5.1186,0,0,0,782.9768,351.4921Z"/><path class="cls-3" d="M806.4665,334.4084v3.9834h-.6157a8.3177,8.3177,0,0,0-3.47.698,6.7257,6.7257,0,0,0-2.5667,2.0128v15.2356H796.2v-16.674l-.9029-4.7638H798.91l.7392,3.82a15.9842,15.9842,0,0,1,2.854-3.3883,4.2219,4.2219,0,0,1,2.69-.9235Z"/><path class="cls-3" d="M817.5962,334.9005H823.51v3.1217h-5.9139v12.2787a4.0463,4.0463,0,0,0,.6775,2.4442,2.3147,2.3147,0,0,0,1.9922.9235,6.56,6.56,0,0,0,1.6215-.1843,10.0464,10.0464,0,0,0,1.6226-.5962v3.2041a6.8629,6.8629,0,0,1-1.8069.5951,13.0327,13.0327,0,0,1-2.0941.1442,5.241,5.241,0,0,1-4.1276-1.6844,6.4812,6.4812,0,0,1-1.4991-4.4766V338.0222h-4.107v-3.1217h4.107v-5.7491l3.6138-1.8893Z"/><path class="cls-3" d="M844.1263,356.3383l-.5756-2.9981a15.5314,15.5314,0,0,1-3.6344,2.6285,9.128,9.128,0,0,1-4.0864.8628,5.6005,5.6005,0,0,1-4.5373-1.93,7.71,7.71,0,0,1-1.6226-5.1335V334.9005h3.6138v14.3739a5.01,5.01,0,0,0,.904,3.1423,3.0726,3.0726,0,0,0,2.5873,1.1706,7.7462,7.7462,0,0,0,3.3873-.6991,13.8516,13.8516,0,0,0,3.06-2.0941V334.9005h3.6138v16.674l.904,4.7638Z"/><path class="cls-3" d="M871.7229,336.2771a7.87,7.87,0,0,1,1.5608,5.1952v14.866H869.67V341.9644a5.15,5.15,0,0,0-.8628-3.1824,3.096,3.096,0,0,0-2.6285-1.1294,7.83,7.83,0,0,0-3.3883.6569,13.96,13.96,0,0,0-3.0588,2.1353v15.8935h-3.6138v-16.674l-.904-4.7638h3.6138l.5756,2.9981a15.0264,15.0264,0,0,1,3.5932-2.6686,9.2787,9.2787,0,0,1,4.1276-.8216A5.6531,5.6531,0,0,1,871.7229,336.2771Z"/><path class="cls-3" d="M881.7221,329.3161a2.8427,2.8427,0,0,1,0-3.7785,2.7315,2.7315,0,0,1,3.7374,0,2.8427,2.8427,0,0,1,0,3.7785,2.7315,2.7315,0,0,1-3.7374,0Zm3.6756,5.5844v21.4378h-3.6138V334.9005Z"/><path class="cls-3" d="M908.6011,356.3383l-.5333-2.8334a9.8365,9.8365,0,0,1-3.3266,2.4638,10.11,10.11,0,0,1-4.1482.8216,6.9941,6.9941,0,0,1-6.1187-3.0805,13.5315,13.5315,0,0,1-2.1353-7.8844,14.0966,14.0966,0,0,1,1.1706-5.8727,9.4821,9.4821,0,0,1,3.3667-4.0658,9.1512,9.1512,0,0,1,5.2364-1.4785,10.8837,10.8837,0,0,1,2.7933.349,18.8587,18.8587,0,0,1,2.7922,1.0059v-10.39h3.6138v26.2016l.904,4.7638Zm-3.9216-3.6756a11.5706,11.5706,0,0,0,3.0187-2.3619V338.5154a15.9638,15.9638,0,0,0-5.2158-.904,5.33,5.33,0,0,0-4.62,2.2795,9.8547,9.8547,0,0,0-1.6226,5.8521,11.6111,11.6111,0,0,0,1.1706,5.5649,3.9649,3.9649,0,0,0,3.758,2.1559A7.492,7.492,0,0,0,904.68,352.6627Z"/><path class="cls-3" d="M933.0772,356.3383l-.5745-3.0805a11.3812,11.3812,0,0,1-3.4707,2.67,9.553,9.553,0,0,1-4.2089.904,6.6968,6.6968,0,0,1-4.7226-1.6638,6.2657,6.2657,0,0,1,1.0677-9.6707,14.4775,14.4775,0,0,1,7.3923-1.6844,35.2125,35.2125,0,0,1,3.6138.2059V342.54a5.0856,5.0856,0,0,0-1.2118-3.5531,4.0488,4.0488,0,0,0-3.1412-1.3343,13.26,13.26,0,0,0-4.1688.6157,16.0153,16.0153,0,0,0-3.8392,1.93v-3.49a13.0149,13.0149,0,0,1,3.9422-1.7874,18.7079,18.7079,0,0,1,4.5991-.5127,7.2164,7.2164,0,0,1,5.36,2.0941,7.5374,7.5374,0,0,1,2.0735,5.5443v9.5277l.904,4.7638Zm-3.9834-3.3677a12.4642,12.4642,0,0,0,3.0805-2.3814v-4.0246h-3.7785q-6.2011,0-6.2011,3.9834a3.0736,3.0736,0,0,0,.9452,2.3608,3.4,3.4,0,0,0,2.4226.8834A7.4568,7.4568,0,0,0,929.0937,352.9706Z"/><path class="cls-3" d="M958.7032,356.3383l-.5333-2.8334a9.8365,9.8365,0,0,1-3.3266,2.4638,10.11,10.11,0,0,1-4.1482.8216,6.9941,6.9941,0,0,1-6.1187-3.0805,13.5315,13.5315,0,0,1-2.1353-7.8844,14.0966,14.0966,0,0,1,1.1706-5.8727,9.4821,9.4821,0,0,1,3.3667-4.0658,9.1512,9.1512,0,0,1,5.2364-1.4785,10.8837,10.8837,0,0,1,2.7933.349,18.8587,18.8587,0,0,1,2.7922,1.0059v-10.39h3.6138v26.2016l.904,4.7638Zm-3.9216-3.6756a11.5706,11.5706,0,0,0,3.0187-2.3619V338.5154a15.9638,15.9638,0,0,0-5.2158-.904,5.33,5.33,0,0,0-4.62,2.2795,9.8547,9.8547,0,0,0-1.6226,5.8521,11.6111,11.6111,0,0,0,1.1706,5.5649,3.9649,3.9649,0,0,0,3.758,2.1559A7.492,7.492,0,0,0,954.7816,352.6627Z"/><path class="cls-3" d="M987.5735,346.8106H972.3791a8.2711,8.2711,0,0,0,2.1147,5.03,6.4116,6.4116,0,0,0,4.8668,1.8687,8.9076,8.9076,0,0,0,3.5932-.76,15.3207,15.3207,0,0,0,3.552-2.2383h.1648v3.6138a13.4012,13.4012,0,0,1-3.5726,1.91,11.765,11.765,0,0,1-3.7785.5962,10.9959,10.9959,0,0,1-5.709-1.4373,9.5445,9.5445,0,0,1-3.7157-4.0051,12.9087,12.9087,0,0,1-1.2942-5.8922,13.371,13.371,0,0,1,1.1706-5.6884,9.3288,9.3288,0,0,1,3.3471-3.9628,9.0241,9.0241,0,0,1,5.0923-1.4373,8.72,8.72,0,0,1,5.0717,1.4579,9.0527,9.0527,0,0,1,3.203,4.004,14.5029,14.5029,0,0,1,1.0883,5.7491Zm-13.3875-7.556a8.6324,8.6324,0,0,0-1.8069,4.7638h11.4581a9.2455,9.2455,0,0,0-1.6638-4.805,4.637,4.637,0,0,0-3.9216-1.8069A4.9913,4.9913,0,0,0,974.1859,339.2546Z"/><path class="cls-3" d="M996.3413,356.2353a14.146,14.146,0,0,1-3.5932-1.7039v-3.7785a12.1373,12.1373,0,0,0,7.3913,2.8746,6.0862,6.0862,0,0,0,3.45-.8823,2.7183,2.7183,0,0,0,1.3137-2.3619,2.3213,2.3213,0,0,0-.6363-1.6833,4.3968,4.3968,0,0,0-1.5814-1.0265q-.9446-.3707-2.71-.904a31.7349,31.7349,0,0,1-3.5932-1.2118,6.2551,6.2551,0,0,1-2.4031-1.7657,4.5884,4.5884,0,0,1-.9853-3.0588,5.5719,5.5719,0,0,1,2.1765-4.6,8.918,8.918,0,0,1,5.7079-1.7245,11.5973,11.5973,0,0,1,6.4071,1.8481v3.655a11.4618,11.4618,0,0,0-3.1011-1.7657,9.3024,9.3024,0,0,0-3.1412-.5344,6.1161,6.1161,0,0,0-3.2442.7392,2.3,2.3,0,0,0-1.1912,2.0529,2.076,2.076,0,0,0,.6363,1.5608,4.7233,4.7233,0,0,0,1.5814.9864q.9446.3691,2.7109.9029a34.3828,34.3828,0,0,1,3.6138,1.253,6.1415,6.1415,0,0,1,2.3814,1.8069,4.82,4.82,0,0,1,.9853,3.1412,6.0139,6.0139,0,0,1-1.0677,3.5119,7.0765,7.0765,0,0,1-2.9569,2.402,10.1787,10.1787,0,0,1-4.2706.8628A12.9714,12.9714,0,0,1,996.3413,356.2353Z"/><g class="cls-4"><path class="cls-5" d="M92.2261,278.4106s-.0775,15.8883,36.0132,29.3664c46.8663,17.5023,76.2749-4.4965,5.8808,36.4439-38.121,22.1707-22.6552,72.8754-9.9582,90.167,16.4548,22.4093-104.3661-38.9349-106.4083-45.693S92.2261,278.4106,92.2261,278.4106Z"/><path class="cls-5" d="M72.734-1.199s88.2972,1.23,112.2766,37.0907c35.783,53.5121,79.758-20.2315,126.3284,17.2691,44.0426,35.465,46.4226,69.598,45.7309,97.4119-1.2047,48.44,64.8273-13.5814,100.5814,60.2922,16.6374,34.3755,20.9-110.5661-5.6548-151.4361S320.4128-78.6314,280.028-70.7977,72.734-1.199,72.734-1.199Z"/><path class="cls-6" d="M-8.5351,255.7276S-.9337,200.14.7836,204.5425c23.85,61.15,91.9522,48.8108,109.0184,62.2316,35.7044,28.0777-44.6373,32.1667-40.8934,58.1139s30.53,24.4275,31.05,58.6881S96.5326,419.01,96.5326,419.01-9.8386,354.4578-10.0656,353.7069s-9.0119-73.2078-9.0119-73.2078Z"/><path class="cls-6" d="M149.7143,132.2833S113.1,160.6509,104.75,175.8731c-7.3277,13.3592-.0605,15.3625,28.6491,6.1846,28.3145-9.0515,33.8189-12.3706,42.7333-32.161,10.732-23.8256,13.2555-43.794,9.4172-45.3327S149.7143,132.2833,149.7143,132.2833Z"/><path class="cls-6" d="M502.1872,61.0883,479.012,168.9029s-82.4864-33.5662-97.9965-60.7565c-6.2236-10.8864-10.7026-49.7277-21.5906-63.63,10.9062-15.8666,31.7425-28.924,48.54-42.867l.4875.3116Z"/><path class="cls-6" d="M412.1333-6.129c-16.7976,13.9429-24.8542,34.5206-35.76,50.3871a17.2313,17.2313,0,0,0-3.9251-3.7143c-15.2641-10.2688-27.7165-7.8168-100.3354,2.9838s-48.0967-72.87-48.0967-72.87L340.19-51.5023Z"/><path class="cls-5" d="M254.57,122.6587c.4949-9.7781,15.5939-11.0334,19.2188,5.9456s-1.2071,35.8788-11.083,46.3944-25.6437,24.45-28.04,23.1664C232.6,197.0582,252.1885,169.7025,254.57,122.6587Z"/><path class="cls-6" d="M406.2316,327.39c-4.5121-18.2222-33.7145-67.8527-27.2073-79.27,8.6714-15.215,23.5684-12.543,27.256-4.5278C427.5772,289.8812,407.7806,333.6459,406.2316,327.39Z"/><path class="cls-5" d="M.53,160.8193s7.1277-48.4775,53.32-55.4881c26.11-3.9628,15.8563,18.6989-7.4374,36.9789C23.9686,159.9232,4.8815,180.4715.86,194.0448c-3.741,12.6258-10.4529-12.3123-10.6033-17.0092Z"/><path class="cls-6" d="M-4.7941,150.0268S79.21,3.7824,63.0959,73.39c-1.1441,4.9422,2.0817,20.7463,5.2159,29.7553,9.293,26.7128-31.1694,30.95-46.576,41.1177-37.7921,24.942-10.8243-7.8708-14.8425-1.6606-6.8715,10.62-11.967,16.1633-12.038,19.8224Z"/><path class="cls-5" d="M309.5278,276.4342c-19.6466,17.9508,5.2282,58.6413-23.4731,66.8459-32.2553,9.2206-39.4864.0774-59.83,22.56s4.8348,17.7337,47.5927,6.6944c36.416-9.402,55.5948-40.1354,46.5862-67.5786C312.96,282.2786,311.768,274.3874,309.5278,276.4342Z"/><path class="cls-6" d="M309.5278,276.4342s-25.1122-26.8163-25.8591-40.2251c-.6373-11.4414,23.2219-2.9483,28.444,1.7227C314.65,240.2016,316.5614,242.8172,309.5278,276.4342Z"/></g><path class="cls-2" d="M85.0359,95.1412C57.7554,74.9552,124.8268,17.27,161.42,42.1612c40.7512,27.7194.8747,60.6035-47.6677,99.95-25.977,21.0557-40.1276,29.5482-35.3714,47.6857,3.5692,13.6112,23.5792,16.8133,43.3988,11.72,30.27-7.7787,82.998-12.6486,85.7566-91.2838,1.9009-54.1874,88.1014-75.59,120.2435-13.228,24.3693,47.2815,3.7562,76.9942-17.1682,101.222-41.8148,48.416-122.0213,54.7-114.5884,71.36,6.1629,13.8134,73.6562-14.4652,84.2479,11.2648,21.8518,53.0832-123.6564,69.4808-86.8464,109.9253,13.2493,14.5574,72.3512,2.5227,89.5284-4.8143,22.2466-9.5024,43.316-18.2513,50.4937-43.485,8.2706-29.0758,3.8321-34.2737-6.85-75.8974-8.281-32.2663,6.0432-58.1747,23.5355-69.9469,24.137-16.2441,56.1072-17.1645,79.28,3.3947,31.1376,27.6261,8.4787,76.8061-.99,74.8273-8.2238-1.7187-2.4394-11.0435-11.8438-35.5846-9.3427-24.38-28.0755-28.3417-47.122-14.6042-34.405,24.8149,31.7805,80.48,17.8627,123.2163-16.8668,51.7916-80.7658,71.4059-118.8374,80.2934-39.7971,9.29-120.6614,9.9274-131.6639-32.1337-17.6261-67.3819,106.7854-62.786,95.9531-95.9394-5.12-15.6713-83.0487,10.9516-93.2525-15.3444-6.8257-17.59,9.3875-26.8467,32.1691-37.3329,41.1991-18.9636,127.4635-51.577,121.9864-112.037-5.3591-59.1586-50.8108-47.3867-54.592-19.4793-8.5353,62.995-17.2238,79.2823-55.9449,102.2379-31.2034,18.4988-117.1152,38.2212-147.3188,9.5359-26.6242-25.2859-3.6288-52.1857,19.021-73.4816C83.0035,127.72,144.932,90.1081,138.5308,70.8409,129.2141,42.7984,88.6646,97.8263,85.0359,95.1412Z"/></svg>