<svg id="Camada_1" data-name="Camada 1" xmlns="http://www.w3.org/2000/svg" xmlns:xlink="http://www.w3.org/1999/xlink" width="433.7834" height="691.7254" viewBox="0 0 433.7834 691.7254"><defs><style>.cls-1{fill:none;}.cls-2{fill:#0091d5;}.cls-3{fill:#808285;}.cls-4{clip-path:url(#clip-path);}.cls-5{fill:#00c0f3;}.cls-6{fill:#034ea2;}</style><clipPath id="clip-path"><circle class="cls-1" cx="217.7664" cy="217.048" r="215.96" transform="translate(-53.4768 72.2752) rotate(-16.8148)"/></clipPath></defs><title>LOGO</title><path class="cls-2" d="M28.4692,468.4621a2.117,2.117,0,0,1,2.117-2.117H57.6072q33.5211,0,33.5218,29.3962,0,14.8282-8.3158,22.6274-8.3162,7.8025-24.3032,7.8H41.9321a2.117,2.117,0,0,0-2.117,2.117v25.6776a2.117,2.117,0,0,1-2.117,2.117h-7.112a2.117,2.117,0,0,1-2.117-2.117ZM58.123,515.597q11.0868,0,15.9227-4.5125t4.8349-14.8269q0-10.3144-4.8349-14.6985-4.8349-4.3816-16.4386-4.3833H41.9321a2.117,2.117,0,0,0-2.117,2.117V513.48a2.117,2.117,0,0,0,2.117,2.117Z"/><path class="cls-2" d="M104.4614,466.3452h7.112a2.117,2.117,0,0,1,2.117,2.117v74.6718a2.117,2.117,0,0,0,2.117,2.117h36.25a2.117,2.117,0,0,1,2.117,2.117v6.5958a2.117,2.117,0,0,1-2.117,2.117H104.4614a2.117,2.117,0,0,1-2.117-2.117V468.4621A2.117,2.117,0,0,1,104.4614,466.3452Z"/><path class="cls-2" d="M170.5677,547.2486q-8.9621-10.3761-8.96-28.3V468.4621a2.117,2.117,0,0,1,2.117-2.117h7.112a2.117,2.117,0,0,1,2.117,2.117v50.1q0,13.1511,5.8661,20.8227t16.9544,7.6712q11.0868,0,16.9544-7.6712,5.8654-7.6691,5.8661-20.8227v-50.1a2.117,2.117,0,0,1,2.117-2.117h7.112a2.117,2.117,0,0,1,2.117,2.117v50.4866q0,17.923-8.96,28.3-8.9634,10.38-25.2059,10.379Q179.5284,557.6276,170.5677,547.2486Z"/><path class="cls-2" d="M295.36,554.9351,278.365,522.0282a2.117,2.117,0,0,0-1.8809-1.1455H257.9723a2.117,2.117,0,0,0-2.117,2.117v30.9641a2.117,2.117,0,0,1-2.117,2.117h-7.112a2.117,2.117,0,0,1-2.117-2.117V468.4621a2.117,2.117,0,0,1,2.117-2.117h28.31q16.1162,0,23.9813,6.7688,7.863,6.7688,7.8651,19.7911,0,9.67-4.2549,16.3739a22.599,22.599,0,0,1-10.34,8.7,2.1273,2.1273,0,0,0-1.0632,2.9386l16.8623,32.0605a2.117,2.117,0,0,1-1.8736,3.1024h-8.8722A2.117,2.117,0,0,1,295.36,554.9351ZM289.8278,506.25q4.7052-3.9321,4.7064-13.3446,0-8.636-4.7064-12.1837-4.7077-3.5443-14.8916-3.5456h-16.964a2.117,2.117,0,0,0-2.117,2.117v28.7716a2.117,2.117,0,0,0,2.117,2.117h17.0932Q285.1218,510.1813,289.8278,506.25Z"/><path class="cls-2" d="M324.4987,466.3452h7.112a2.117,2.117,0,0,1,2.117,2.117v85.5015a2.117,2.117,0,0,1-2.117,2.117h-7.112a2.117,2.117,0,0,1-2.117-2.117V468.4621A2.117,2.117,0,0,1,324.4987,466.3452Z"/><path class="cls-2" d="M363.897,555.6937a81.1508,81.1508,0,0,1-14.0959-4.72,2.1143,2.1143,0,0,1-1.2473-1.9362V541.66a2.1174,2.1174,0,0,1,3.0817-1.8793,78.473,78.473,0,0,0,12.7122,5.2119,49.6445,49.6445,0,0,0,14.3762,2.1925q8.8954,0,13.7953-3.9972a13.38,13.38,0,0,0,4.9-10.959,12.0063,12.0063,0,0,0-2.7079-7.9935,19.6976,19.6976,0,0,0-6.8334-5.1572,106.3381,106.3381,0,0,0-11.0875-4.2549,105.2165,105.2165,0,0,1-13.473-5.4149,24.9364,24.9364,0,0,1-8.7028-7.3488q-3.611-4.7694-3.61-12.3776,0-11.3443,8.2512-18.1148,8.2495-6.7688,22.1758-6.7688a54.049,54.049,0,0,1,23.7,5.2152,2.1124,2.1124,0,0,1,1.1837,1.9071v7.0157a2.12,2.12,0,0,1-3.0863,1.88,48.5476,48.5476,0,0,0-21.7973-5.5749q-8.8954,0-13.9237,3.5456a11.2761,11.2761,0,0,0-5.0288,9.7344,10.14,10.14,0,0,0,2.5786,7.0911,19.5552,19.5552,0,0,0,6.3181,4.5763q3.737,1.7413,10.5721,4.19a108.91,108.91,0,0,1,13.9246,5.5442,25.6179,25.6179,0,0,1,9.2181,7.8651q3.8012,5.1585,3.8033,13.28a26.5947,26.5947,0,0,1-3.61,13.9884,24.0911,24.0911,0,0,1-10.3144,9.2828,34.709,34.709,0,0,1-15.4716,3.2879A67.3214,67.3214,0,0,1,363.897,555.6937Z"/><path class="cls-3" d="M87.4847,590.3478a7.0364,7.0364,0,0,1,2.3118,3.1248,12.0773,12.0773,0,0,1,.781,4.4638,10.4577,10.4577,0,0,1-.9089,4.4478,6.9952,6.9952,0,0,1-6.6485,4.1936,9.0549,9.0549,0,0,1-2.2-.255,15.3328,15.3328,0,0,1-2.1679-.7339v8.0355H75.8464V593.2807l-.7019-3.6988H77.95l.4149,2.1368A6.8589,6.8589,0,0,1,83.7859,589.2,5.9869,5.9869,0,0,1,87.4847,590.3478ZM86.2888,602.369a7.32,7.32,0,0,0,1.26-4.4326,8.9511,8.9511,0,0,0-.9729-4.4318,3.2542,3.2542,0,0,0-3.0449-1.7219,5.6118,5.6118,0,0,0-2.6308.6059,8.2958,8.2958,0,0,0-2.2479,1.785v9.2794a13.8284,13.8284,0,0,0,4.0809.6379A4.1475,4.1475,0,0,0,86.2888,602.369Z"/><path class="cls-3" d="M109.9955,598.8293H98.1981a6.4219,6.4219,0,0,0,1.6419,3.9058,4.9782,4.9782,0,0,0,3.7787,1.4509,6.9161,6.9161,0,0,0,2.79-.59,11.8955,11.8955,0,0,0,2.7579-1.7379h.1279v2.8059a10.4051,10.4051,0,0,1-2.7739,1.4829,9.1347,9.1347,0,0,1-2.9338.4629,8.5376,8.5376,0,0,1-4.4326-1.1159,7.4106,7.4106,0,0,1-2.885-3.11,10.0227,10.0227,0,0,1-1.0049-4.5749,10.3817,10.3817,0,0,1,.9089-4.4167,7.2431,7.2431,0,0,1,2.5988-3.0768,7.0066,7.0066,0,0,1,3.9538-1.1159,6.77,6.77,0,0,1,3.9378,1.1319,7.0288,7.0288,0,0,1,2.4869,3.1088,11.26,11.26,0,0,1,.845,4.4638Zm-10.3945-5.8667a6.7024,6.7024,0,0,0-1.4029,3.6988h8.8964a7.1785,7.1785,0,0,0-1.2918-3.7308,3.6,3.6,0,0,0-3.0449-1.4029A3.8754,3.8754,0,0,0,99.6011,592.9626Z"/><path class="cls-3" d="M130.1793,589.5508l-.7019,3.6988v20.3749h-2.8059v-9.2785a7.4939,7.4939,0,0,1-5.5166,2.2319,5.43,5.43,0,0,1-4.7508-2.3918,10.5062,10.5062,0,0,1-1.6579-6.1217,10.945,10.945,0,0,1,.9089-4.56,7.3581,7.3581,0,0,1,2.6148-3.1568,7.1006,7.1006,0,0,1,4.0649-1.1479,8.4892,8.4892,0,0,1,2.3758.319,15.2212,15.2212,0,0,1,2.4069.956l.2558-.9241Zm-5.8516,13.8222a8.9837,8.9837,0,0,0,2.3438-1.8338v-9.1506a12.391,12.391,0,0,0-4.05-.7019,4.1383,4.1383,0,0,0-3.5868,1.77,7.6515,7.6515,0,0,0-1.26,4.5437,9.0152,9.0152,0,0,0,.9089,4.3207,3.0793,3.0793,0,0,0,2.9178,1.6739A5.817,5.817,0,0,0,124.3278,603.373Z"/><path class="cls-3" d="M147.2063,606.2269l-.4469-2.3278a12.059,12.059,0,0,1-2.8218,2.0409,7.0873,7.0873,0,0,1-3.1728.67,4.3484,4.3484,0,0,1-3.5229-1.4989,5.9859,5.9859,0,0,1-1.26-3.9858V589.5819h2.8059v11.16a3.89,3.89,0,0,0,.7019,2.44,2.3856,2.3856,0,0,0,2.0089.9089,6.0144,6.0144,0,0,0,2.63-.5428,10.7548,10.7548,0,0,0,2.3758-1.6259v-12.34H149.31v12.9462l.7019,3.6988Z"/><path class="cls-3" d="M169.94,598.8293H158.1428a6.4219,6.4219,0,0,0,1.6419,3.9058,4.9782,4.9782,0,0,0,3.7787,1.4509,6.9161,6.9161,0,0,0,2.79-.59,11.8955,11.8955,0,0,0,2.7579-1.7379h.1279v2.8059a10.4051,10.4051,0,0,1-2.7739,1.4829,9.1347,9.1347,0,0,1-2.9338.4629,8.5376,8.5376,0,0,1-4.4326-1.1159,7.4106,7.4106,0,0,1-2.885-3.11,10.0227,10.0227,0,0,1-1.0049-4.5749,10.3817,10.3817,0,0,1,.9089-4.4167,7.2431,7.2431,0,0,1,2.5988-3.0768,7.0066,7.0066,0,0,1,3.9538-1.1159,6.77,6.77,0,0,1,3.9378,1.1319,7.0288,7.0288,0,0,1,2.4869,3.1088,11.26,11.26,0,0,1,.845,4.4638Zm-10.3945-5.8667a6.7024,6.7024,0,0,0-1.4029,3.6988h8.8964a7.1785,7.1785,0,0,0-1.2918-3.7308,3.6,3.6,0,0,0-3.0449-1.4029A3.8754,3.8754,0,0,0,159.5457,592.9626Z"/><path class="cls-3" d="M187.7642,590.6508a6.11,6.11,0,0,1,1.2119,4.0337v11.5424H186.17v-11.16a3.9984,3.9984,0,0,0-.67-2.4709,2.4039,2.4039,0,0,0-2.0409-.8769,6.08,6.08,0,0,0-2.6308.51,10.8388,10.8388,0,0,0-2.375,1.6579v12.34h-2.8059V593.2807l-.7019-3.6988h2.8059l.4469,2.3278a11.6669,11.6669,0,0,1,2.79-2.072,7.2043,7.2043,0,0,1,3.2048-.6379A4.3893,4.3893,0,0,1,187.7642,590.6508Z"/><path class="cls-3" d="M206.0662,606.2269l-.446-2.3918a8.8367,8.8367,0,0,1-2.6948,2.0728,7.4172,7.4172,0,0,1-3.2679.7019,5.2,5.2,0,0,1-3.6668-1.2918,4.8649,4.8649,0,0,1,.829-7.5087,11.2408,11.2408,0,0,1,5.74-1.3078,27.34,27.34,0,0,1,2.8059.16v-1.1479a3.9486,3.9486,0,0,0-.9409-2.7587,3.1436,3.1436,0,0,0-2.4389-1.036,10.2957,10.2957,0,0,0-3.2367.478,12.4347,12.4347,0,0,0-2.9809,1.4989v-2.71a10.1052,10.1052,0,0,1,3.0609-1.3878,14.5253,14.5253,0,0,1,3.5709-.3981,5.603,5.603,0,0,1,4.1617,1.6259,5.8522,5.8522,0,0,1,1.61,4.3047v7.3976l.7019,3.6988Zm-3.0928-2.6148a9.6776,9.6776,0,0,0,2.3918-1.849v-3.1248h-2.9338q-4.8147,0-4.8147,3.0928a2.3864,2.3864,0,0,0,.7339,1.833,2.64,2.64,0,0,0,1.8809.6859A5.79,5.79,0,0,0,202.9733,603.6121Z"/><path class="cls-3" d="M215.6485,606.1469a10.9834,10.9834,0,0,1-2.79-1.323V601.89a9.4238,9.4238,0,0,0,5.7388,2.2319,4.7255,4.7255,0,0,0,2.6788-.6851,2.1105,2.1105,0,0,0,1.02-1.8338,1.8023,1.8023,0,0,0-.494-1.307,3.4138,3.4138,0,0,0-1.2279-.797q-.7334-.2878-2.104-.7019a24.64,24.64,0,0,1-2.79-.9409,4.8566,4.8566,0,0,1-1.8658-1.3709,3.5626,3.5626,0,0,1-.765-2.375,4.3262,4.3262,0,0,1,1.69-3.5717,6.9242,6.9242,0,0,1,4.4318-1.339,9.0045,9.0045,0,0,1,4.9746,1.4349v2.8378a8.8992,8.8992,0,0,0-2.4078-1.3709,7.2226,7.2226,0,0,0-2.4389-.4149,4.7487,4.7487,0,0,0-2.5189.574,1.7856,1.7856,0,0,0-.9249,1.594,1.6119,1.6119,0,0,0,.494,1.2119,3.6673,3.6673,0,0,0,1.2279.7658q.7334.2866,2.1048.701a26.6958,26.6958,0,0,1,2.8059.9729,4.7684,4.7684,0,0,1,1.849,1.4029,3.7422,3.7422,0,0,1,.765,2.4389,4.6694,4.6694,0,0,1-.829,2.7267,5.4944,5.4944,0,0,1-2.2959,1.865,7.9031,7.9031,0,0,1-3.3159.67A10.0714,10.0714,0,0,1,215.6485,606.1469Z"/><path class="cls-3" d="M241.3649,605.4938a7.19,7.19,0,0,1-2.6788-3.0777,10.2993,10.2993,0,0,1-.9249-4.4478,10.594,10.594,0,0,1,.9249-4.5118,7.2644,7.2644,0,0,1,2.6788-3.1248,7.42,7.42,0,0,1,4.1128-1.1319,10.7374,10.7374,0,0,1,2.9018.3509,6.44,6.44,0,0,1,2.36,1.275v2.7108h-.1279a7.4469,7.4469,0,0,0-2.375-1.3718,8.7143,8.7143,0,0,0-2.7907-.4141,4.0083,4.0083,0,0,0-3.4909,1.7539A7.6617,7.6617,0,0,0,240.727,598a7.2652,7.2652,0,0,0,1.2279,4.3527,4.0135,4.0135,0,0,0,3.46,1.7059,7.8836,7.8836,0,0,0,2.9649-.5268,8.8087,8.8087,0,0,0,2.5828-1.6739h.1279v2.7108a6.9573,6.9573,0,0,1-2.5357,1.578,9.6165,9.6165,0,0,1-3.1088.4629A7.4421,7.4421,0,0,1,241.3649,605.4938Z"/><path class="cls-3" d="M256.1112,585.2461a2.2072,2.2072,0,0,1,0-2.9338,2.1208,2.1208,0,0,1,2.9018,0,2.2072,2.2072,0,0,1,0,2.9338,2.1208,2.1208,0,0,1-2.9018,0Zm2.8538,4.3359v16.6449h-2.8059V589.5819Z"/><path class="cls-3" d="M276.9809,606.2269l-.4141-2.2a7.6374,7.6374,0,0,1-2.5828,1.9129,7.85,7.85,0,0,1-3.2208.6379,5.43,5.43,0,0,1-4.7508-2.3918,10.5062,10.5062,0,0,1-1.6579-6.1217,10.945,10.945,0,0,1,.9089-4.56,7.3622,7.3622,0,0,1,2.614-3.1568,7.1053,7.1053,0,0,1,4.0657-1.1479,8.45,8.45,0,0,1,2.1688.271,14.6424,14.6424,0,0,1,2.1679.781v-8.0675h2.8059v20.3437l.7019,3.6988Zm-3.0449-2.8538a8.9837,8.9837,0,0,0,2.3438-1.8338v-9.1506a12.3947,12.3947,0,0,0-4.05-.7019,4.1383,4.1383,0,0,0-3.5868,1.77,7.6515,7.6515,0,0,0-1.26,4.5437,9.0152,9.0152,0,0,0,.9089,4.3207,3.0784,3.0784,0,0,0,2.9178,1.6739A5.817,5.817,0,0,0,273.9361,603.373Z"/><path class="cls-3" d="M295.9848,606.2269l-.446-2.3918a8.8367,8.8367,0,0,1-2.6948,2.0728,7.4172,7.4172,0,0,1-3.2679.7019,5.2,5.2,0,0,1-3.6668-1.2918,4.8649,4.8649,0,0,1,.829-7.5087,11.2407,11.2407,0,0,1,5.74-1.3078,27.34,27.34,0,0,1,2.8059.16v-1.1479a3.9486,3.9486,0,0,0-.9409-2.7587,3.1436,3.1436,0,0,0-2.4389-1.036,10.2957,10.2957,0,0,0-3.2367.478,12.4347,12.4347,0,0,0-2.9809,1.4989v-2.71a10.1052,10.1052,0,0,1,3.0609-1.3878,14.5253,14.5253,0,0,1,3.5709-.3981,5.603,5.603,0,0,1,4.1617,1.6259,5.8522,5.8522,0,0,1,1.61,4.3047v7.3976l.7019,3.6988Zm-3.0928-2.6148a9.6776,9.6776,0,0,0,2.3918-1.849v-3.1248H292.35q-4.8147,0-4.8147,3.0928a2.3864,2.3864,0,0,0,.7339,1.833,2.64,2.64,0,0,0,1.8809.6859A5.79,5.79,0,0,0,292.892,603.6121Z"/><path class="cls-3" d="M315.8817,606.2269l-.4141-2.2a7.6374,7.6374,0,0,1-2.5828,1.9129,7.85,7.85,0,0,1-3.2208.6379,5.43,5.43,0,0,1-4.7508-2.3918,10.5062,10.5062,0,0,1-1.6579-6.1217,10.945,10.945,0,0,1,.9089-4.56,7.3622,7.3622,0,0,1,2.614-3.1568,7.1053,7.1053,0,0,1,4.0657-1.1479,8.45,8.45,0,0,1,2.1688.271,14.6424,14.6424,0,0,1,2.1679.781v-8.0675h2.8059v20.3437l.7019,3.6988Zm-3.0449-2.8538a8.9837,8.9837,0,0,0,2.3438-1.8338v-9.1506a12.3947,12.3947,0,0,0-4.05-.7019,4.1383,4.1383,0,0,0-3.5868,1.77,7.6515,7.6515,0,0,0-1.26,4.5437,9.0152,9.0152,0,0,0,.9089,4.3207,3.0784,3.0784,0,0,0,2.9178,1.6739A5.817,5.817,0,0,0,312.8368,603.373Z"/><path class="cls-3" d="M338.2974,598.8293H326.5a6.4219,6.4219,0,0,0,1.6419,3.9058,4.9782,4.9782,0,0,0,3.7787,1.4509,6.9161,6.9161,0,0,0,2.79-.59,11.8955,11.8955,0,0,0,2.7579-1.7379h.1279v2.8059a10.4051,10.4051,0,0,1-2.7739,1.4829,9.1347,9.1347,0,0,1-2.9338.4629,8.5376,8.5376,0,0,1-4.4326-1.1159,7.4106,7.4106,0,0,1-2.885-3.11,10.0227,10.0227,0,0,1-1.0049-4.5749,10.3817,10.3817,0,0,1,.9089-4.4167,7.2431,7.2431,0,0,1,2.5988-3.0768,7.0066,7.0066,0,0,1,3.9538-1.1159,6.77,6.77,0,0,1,3.9378,1.1319,7.0288,7.0288,0,0,1,2.4869,3.1088,11.26,11.26,0,0,1,.845,4.4638Zm-10.3945-5.8667a6.7024,6.7024,0,0,0-1.4029,3.6988h8.8964a7.1785,7.1785,0,0,0-1.2918-3.7308,3.6,3.6,0,0,0-3.0449-1.4029A3.8754,3.8754,0,0,0,327.9029,592.9626Z"/><path class="cls-3" d="M345.105,606.1469a10.9834,10.9834,0,0,1-2.79-1.323V601.89a9.4238,9.4238,0,0,0,5.7388,2.2319,4.7255,4.7255,0,0,0,2.6788-.6851,2.1105,2.1105,0,0,0,1.02-1.8338,1.8023,1.8023,0,0,0-.494-1.307,3.4138,3.4138,0,0,0-1.2279-.797q-.7334-.2878-2.104-.7019a24.64,24.64,0,0,1-2.79-.9409,4.8566,4.8566,0,0,1-1.8658-1.3709,3.5626,3.5626,0,0,1-.765-2.375,4.3262,4.3262,0,0,1,1.69-3.5717,6.9242,6.9242,0,0,1,4.4318-1.339,9.0045,9.0045,0,0,1,4.9746,1.4349v2.8378a8.8992,8.8992,0,0,0-2.4078-1.3709,7.2226,7.2226,0,0,0-2.4389-.4149,4.7487,4.7487,0,0,0-2.5189.574,1.7856,1.7856,0,0,0-.9249,1.594,1.6119,1.6119,0,0,0,.494,1.2119,3.6673,3.6673,0,0,0,1.2279.7658q.7334.2866,2.1048.701a26.6959,26.6959,0,0,1,2.8059.9729,4.7684,4.7684,0,0,1,1.849,1.4029,3.7422,3.7422,0,0,1,.765,2.4389,4.6694,4.6694,0,0,1-.829,2.7267,5.4944,5.4944,0,0,1-2.2959,1.865,7.9031,7.9031,0,0,1-3.3159.67A10.0714,10.0714,0,0,1,345.105,606.1469Z"/><path class="cls-3" d="M362.148,602.4a14.5727,14.5727,0,0,1-.574,3.9546,21.9208,21.9208,0,0,1-2.0409,4.6548h-2.8059a14.9348,14.9348,0,0,0,1.5308-3.2359,13.3213,13.3213,0,0,0,.5891-2.6628q.1124-1.1475.1119-2.7108Z"/><path class="cls-3" d="M98.66,627.8145l-.701,3.6988v11.8933a9.9143,9.9143,0,0,1-1.9449,6.5366,7.0957,7.0957,0,0,1-5.7716,2.3278,12.3838,12.3838,0,0,1-3.5077-.4149,8.126,8.126,0,0,1-2.8378-1.6579V647.36a10.026,10.026,0,0,0,2.9338,1.8018,10.1644,10.1644,0,0,0,3.4118.494,4.4178,4.4178,0,0,0,3.6828-1.5468,6.7879,6.7879,0,0,0,1.2279-4.3207v-.829a7.5414,7.5414,0,0,1-2.1208,1.0049,9.3567,9.3567,0,0,1-2.5349.303,6.7183,6.7183,0,0,1-5.4367-2.1688,9.1535,9.1535,0,0,1-1.833-6.09,9.4248,9.4248,0,0,1,1.9129-6.2976,7.0365,7.0365,0,0,1,5.6757-2.2479,9.22,9.22,0,0,1,2.3758.271,17.4566,17.4566,0,0,1,2.4389.9089l.223-.829Zm-5.6757,13.5193a8.8015,8.8015,0,0,0,2.1688-1.1159v-9.6295a11.4107,11.4107,0,0,0-1.93-.494,13.4682,13.4682,0,0,0-2.088-.1439,4.3066,4.3066,0,0,0-3.6828,1.594,7.2533,7.2533,0,0,0-1.1959,4.4326q0,5.7085,4.2727,5.7077A7.7659,7.7659,0,0,0,92.9841,641.3337Z"/><path class="cls-3" d="M112.434,627.4635v3.0928h-.478a6.4581,6.4581,0,0,0-2.6939.542,5.222,5.222,0,0,0-1.9929,1.5628v11.8294h-2.8067V631.5444l-.701-3.6988h2.8059l.574,2.9658a12.4106,12.4106,0,0,1,2.2159-2.6308,3.278,3.278,0,0,1,2.0888-.717Z"/><path class="cls-3" d="M127.8351,644.4905l-.446-2.3918a8.8367,8.8367,0,0,1-2.6948,2.0728,7.4172,7.4172,0,0,1-3.2679.7019,5.2,5.2,0,0,1-3.6668-1.2918,4.8649,4.8649,0,0,1,.829-7.5087,11.2408,11.2408,0,0,1,5.74-1.3078,27.34,27.34,0,0,1,2.8059.16v-1.1479a3.9486,3.9486,0,0,0-.9409-2.7587,3.1436,3.1436,0,0,0-2.4389-1.036,10.2957,10.2957,0,0,0-3.2367.478,12.4347,12.4347,0,0,0-2.9809,1.4989v-2.71a10.1052,10.1052,0,0,1,3.0609-1.3878,14.5253,14.5253,0,0,1,3.5709-.3981,5.603,5.603,0,0,1,4.1617,1.6259,5.8522,5.8522,0,0,1,1.61,4.3047v7.3976l.7019,3.6988Zm-3.0928-2.6148a9.6776,9.6776,0,0,0,2.3918-1.849v-3.1248H124.2q-4.8147,0-4.8147,3.0928a2.3864,2.3864,0,0,0,.7339,1.833,2.64,2.64,0,0,0,1.8809.6859A5.79,5.79,0,0,0,124.7422,641.8757Z"/><path class="cls-3" d="M148.4338,628.9144a6.11,6.11,0,0,1,1.2119,4.0337v11.5424H146.84V633.33a3.9984,3.9984,0,0,0-.67-2.4709,2.4039,2.4039,0,0,0-2.0409-.8769,6.08,6.08,0,0,0-2.6308.51,10.8388,10.8388,0,0,0-2.375,1.6579v12.34h-2.8059V631.5444l-.7019-3.6988h2.8059l.4469,2.3278a11.6669,11.6669,0,0,1,2.79-2.072,7.2043,7.2043,0,0,1,3.2048-.6379A4.3893,4.3893,0,0,1,148.4338,628.9144Z"/><path class="cls-3" d="M168.1387,644.4905l-.4141-2.2a7.6374,7.6374,0,0,1-2.5828,1.9129,7.85,7.85,0,0,1-3.2208.6379A5.43,5.43,0,0,1,157.17,642.45a10.5062,10.5062,0,0,1-1.6579-6.1217,10.945,10.945,0,0,1,.9089-4.56,7.3622,7.3622,0,0,1,2.614-3.1568,7.1053,7.1053,0,0,1,4.0657-1.1479,8.45,8.45,0,0,1,2.1688.271,14.6424,14.6424,0,0,1,2.1679.781V620.448h2.8059v20.3437l.7019,3.6988Zm-3.0449-2.8538a8.9837,8.9837,0,0,0,2.3438-1.8338v-9.1506a12.3947,12.3947,0,0,0-4.05-.7019,4.1383,4.1383,0,0,0-3.5868,1.77,7.6515,7.6515,0,0,0-1.26,4.5437,9.0152,9.0152,0,0,0,.9089,4.3207,3.0784,3.0784,0,0,0,2.9178,1.6739A5.817,5.817,0,0,0,165.0939,641.6367Z"/><path class="cls-3" d="M190.5544,637.093H178.7571a6.4219,6.4219,0,0,0,1.6419,3.9058,4.9782,4.9782,0,0,0,3.7787,1.4509,6.9161,6.9161,0,0,0,2.79-.59,11.8955,11.8955,0,0,0,2.7579-1.7379h.1279v2.8059a10.4051,10.4051,0,0,1-2.7739,1.4829,9.1347,9.1347,0,0,1-2.9338.4629,8.5376,8.5376,0,0,1-4.4326-1.1159,7.4106,7.4106,0,0,1-2.885-3.11,10.0227,10.0227,0,0,1-1.0049-4.5749,10.3817,10.3817,0,0,1,.9089-4.4167,7.2431,7.2431,0,0,1,2.5988-3.0768,7.0066,7.0066,0,0,1,3.9538-1.1159,6.77,6.77,0,0,1,3.9378,1.1319,7.0288,7.0288,0,0,1,2.4869,3.1088,11.26,11.26,0,0,1,.845,4.4638ZM180.16,631.2263a6.7024,6.7024,0,0,0-1.4029,3.6988h8.8964a7.1785,7.1785,0,0,0-1.2918-3.7308,3.6,3.6,0,0,0-3.0449-1.4029A3.8754,3.8754,0,0,0,180.16,631.2263Z"/><path class="cls-3" d="M197.3621,644.4106a10.9834,10.9834,0,0,1-2.79-1.323v-2.9338a9.4238,9.4238,0,0,0,5.7388,2.2319,4.7255,4.7255,0,0,0,2.6788-.6851,2.1105,2.1105,0,0,0,1.02-1.8338,1.8023,1.8023,0,0,0-.494-1.307,3.4138,3.4138,0,0,0-1.2279-.797q-.7334-.2878-2.104-.7019a24.64,24.64,0,0,1-2.79-.9409,4.8566,4.8566,0,0,1-1.8658-1.3709,3.5626,3.5626,0,0,1-.765-2.375,4.3262,4.3262,0,0,1,1.69-3.5717,6.9242,6.9242,0,0,1,4.4318-1.339,9.0045,9.0045,0,0,1,4.9746,1.4349v2.8378a8.8992,8.8992,0,0,0-2.4078-1.3709,7.2226,7.2226,0,0,0-2.4389-.4149,4.7487,4.7487,0,0,0-2.5189.574,1.7856,1.7856,0,0,0-.9249,1.594,1.6119,1.6119,0,0,0,.494,1.2119,3.6673,3.6673,0,0,0,1.2279.7658q.7334.2866,2.1048.701a26.6958,26.6958,0,0,1,2.8059.9729,4.7684,4.7684,0,0,1,1.849,1.4029,3.7422,3.7422,0,0,1,.765,2.4389,4.6694,4.6694,0,0,1-.829,2.7267,5.4944,5.4944,0,0,1-2.2959,1.865,7.9031,7.9031,0,0,1-3.3159.67A10.0714,10.0714,0,0,1,197.3621,644.4106Z"/><path class="cls-3" d="M232.548,644.4905l-.4141-2.2a7.6374,7.6374,0,0,1-2.5828,1.9129,7.85,7.85,0,0,1-3.2208.6379A5.43,5.43,0,0,1,221.58,642.45a10.5062,10.5062,0,0,1-1.6579-6.1217,10.945,10.945,0,0,1,.9089-4.56,7.3622,7.3622,0,0,1,2.614-3.1568,7.1053,7.1053,0,0,1,4.0657-1.1479,8.45,8.45,0,0,1,2.1688.271,14.6424,14.6424,0,0,1,2.1679.781V620.448h2.8059v20.3437l.7019,3.6988Zm-3.0449-2.8538a8.9837,8.9837,0,0,0,2.3438-1.8338v-9.1506a12.3947,12.3947,0,0,0-4.05-.7019,4.1383,4.1383,0,0,0-3.5868,1.77,7.6515,7.6515,0,0,0-1.26,4.5437,9.0152,9.0152,0,0,0,.9089,4.3207,3.0784,3.0784,0,0,0,2.9178,1.6739A5.817,5.817,0,0,0,229.5032,641.6367Z"/><path class="cls-3" d="M254.9637,637.093H243.1663a6.4219,6.4219,0,0,0,1.6419,3.9058,4.9782,4.9782,0,0,0,3.7787,1.4509,6.9161,6.9161,0,0,0,2.79-.59,11.8955,11.8955,0,0,0,2.7579-1.7379h.1279v2.8059a10.4051,10.4051,0,0,1-2.7739,1.4829,9.1347,9.1347,0,0,1-2.9338.4629,8.5376,8.5376,0,0,1-4.4326-1.1159,7.4106,7.4106,0,0,1-2.885-3.11,10.0227,10.0227,0,0,1-1.0049-4.5749,10.3817,10.3817,0,0,1,.9089-4.4167,7.2431,7.2431,0,0,1,2.5988-3.0768,7.0066,7.0066,0,0,1,3.9538-1.1159,6.77,6.77,0,0,1,3.9378,1.1319,7.0288,7.0288,0,0,1,2.4869,3.1088,11.26,11.26,0,0,1,.845,4.4638Zm-10.3945-5.8667a6.7024,6.7024,0,0,0-1.4029,3.6988h8.8964a7.1785,7.1785,0,0,0-1.2918-3.7308,3.6,3.6,0,0,0-3.0449-1.4029A3.8754,3.8754,0,0,0,244.5693,631.2263Z"/><path class="cls-3" d="M261.7713,644.4106a10.9834,10.9834,0,0,1-2.79-1.323v-2.9338a9.4238,9.4238,0,0,0,5.7388,2.2319,4.7255,4.7255,0,0,0,2.6788-.6851,2.1105,2.1105,0,0,0,1.02-1.8338,1.8023,1.8023,0,0,0-.494-1.307,3.4138,3.4138,0,0,0-1.2279-.797q-.7334-.2878-2.104-.7019a24.64,24.64,0,0,1-2.79-.9409,4.8566,4.8566,0,0,1-1.8658-1.3709,3.5626,3.5626,0,0,1-.765-2.375,4.3262,4.3262,0,0,1,1.69-3.5717,6.9242,6.9242,0,0,1,4.4318-1.339,9.0045,9.0045,0,0,1,4.9746,1.4349v2.8378a8.8992,8.8992,0,0,0-2.4078-1.3709,7.2226,7.2226,0,0,0-2.4389-.4149,4.7487,4.7487,0,0,0-2.5189.574,1.7856,1.7856,0,0,0-.9249,1.594,1.6119,1.6119,0,0,0,.494,1.2119,3.6673,3.6673,0,0,0,1.2279.7658q.7334.2866,2.1048.701a26.6958,26.6958,0,0,1,2.8059.9729,4.7684,4.7684,0,0,1,1.849,1.4029,3.7422,3.7422,0,0,1,.765,2.4389,4.6694,4.6694,0,0,1-.829,2.7267,5.4944,5.4944,0,0,1-2.2959,1.865,7.9031,7.9031,0,0,1-3.3159.67A10.0714,10.0714,0,0,1,261.7713,644.4106Z"/><path class="cls-3" d="M286.626,644.4905l-.446-2.3918a8.8367,8.8367,0,0,1-2.6948,2.0728,7.4172,7.4172,0,0,1-3.2679.7019,5.2,5.2,0,0,1-3.6668-1.2918,4.8649,4.8649,0,0,1,.829-7.5087,11.2408,11.2408,0,0,1,5.74-1.3078,27.34,27.34,0,0,1,2.8059.16v-1.1479a3.9486,3.9486,0,0,0-.9409-2.7587,3.1436,3.1436,0,0,0-2.4389-1.036,10.2957,10.2957,0,0,0-3.2367.478,12.4347,12.4347,0,0,0-2.9809,1.4989v-2.71a10.1052,10.1052,0,0,1,3.0609-1.3878,14.5253,14.5253,0,0,1,3.5709-.3981,5.603,5.603,0,0,1,4.1617,1.6259,5.8522,5.8522,0,0,1,1.61,4.3047v7.3976l.7019,3.6988Zm-3.0928-2.6148a9.6776,9.6776,0,0,0,2.3918-1.849v-3.1248h-2.9338q-4.8147,0-4.8147,3.0928a2.3864,2.3864,0,0,0,.7339,1.833,2.64,2.64,0,0,0,1.8809.6859A5.79,5.79,0,0,0,283.5331,641.8757Z"/><path class="cls-3" d="M295.49,630.2694h-3.1888v-2.4238H295.49v-1.9129a6.5524,6.5524,0,0,1,1.2918-4.3207,4.7613,4.7613,0,0,1,3.8738-1.546,5.5189,5.5189,0,0,1,1.2439.1271,11.2635,11.2635,0,0,1,1.307.4149v2.4229a7.4451,7.4451,0,0,0-1.052-.3981,3.5758,3.5758,0,0,0-.9249-.1119,2.74,2.74,0,0,0-2.2319.845,3.407,3.407,0,0,0-.7019,2.2479v2.2319h4.5917v2.4238h-4.5917v14.2212H295.49Zm10.57-6.76a2.2072,2.2072,0,0,1,0-2.9338,2.1208,2.1208,0,0,1,2.9018,0,2.2072,2.2072,0,0,1,0,2.9338,2.1208,2.1208,0,0,1-2.9018,0Zm2.8538,4.3359v16.6449h-2.8059V627.8456Z"/><path class="cls-3" d="M316.5032,642.4976a10.8359,10.8359,0,0,1,0-12.6592,7.9693,7.9693,0,0,1,11.3513,0,10.8359,10.8359,0,0,1,0,12.6592,7.9673,7.9673,0,0,1-11.3513,0Zm9.1834-1.77a9.4,9.4,0,0,0,0-9.1195,3.9742,3.9742,0,0,0-3.5077-1.7219,3.9337,3.9337,0,0,0-3.4917,1.7219,9.52,9.52,0,0,0,0,9.1195,3.9337,3.9337,0,0,0,3.4917,1.7219A3.9742,3.9742,0,0,0,325.6866,640.7278Z"/><path class="cls-3" d="M337.0219,644.4106a10.9834,10.9834,0,0,1-2.79-1.323v-2.9338a9.4238,9.4238,0,0,0,5.7388,2.2319,4.7255,4.7255,0,0,0,2.6788-.6851,2.1105,2.1105,0,0,0,1.02-1.8338,1.8023,1.8023,0,0,0-.494-1.307,3.4138,3.4138,0,0,0-1.2279-.797q-.7334-.2878-2.104-.7019a24.64,24.64,0,0,1-2.79-.9409,4.8566,4.8566,0,0,1-1.8658-1.3709,3.5626,3.5626,0,0,1-.765-2.375,4.3262,4.3262,0,0,1,1.69-3.5717,6.9242,6.9242,0,0,1,4.4318-1.339,9.0045,9.0045,0,0,1,4.9746,1.4349v2.8378a8.8992,8.8992,0,0,0-2.4078-1.3709,7.2226,7.2226,0,0,0-2.4389-.4149,4.7487,4.7487,0,0,0-2.5189.574,1.7856,1.7856,0,0,0-.9249,1.594,1.6119,1.6119,0,0,0,.494,1.2119,3.6673,3.6673,0,0,0,1.2279.7658q.7334.2866,2.1048.701a26.6958,26.6958,0,0,1,2.8059.9729,4.7684,4.7684,0,0,1,1.849,1.4029,3.7422,3.7422,0,0,1,.765,2.4389,4.6694,4.6694,0,0,1-.829,2.7267,5.4944,5.4944,0,0,1-2.2959,1.865,7.9031,7.9031,0,0,1-3.3159.67A10.0714,10.0714,0,0,1,337.0219,644.4106Z"/><path class="cls-3" d="M354.0649,640.6638a14.5727,14.5727,0,0,1-.574,3.9546,21.9208,21.9208,0,0,1-2.0409,4.6548h-2.8059a14.9348,14.9348,0,0,0,1.5308-3.2359,13.3213,13.3213,0,0,0,.5891-2.6628q.1124-1.1475.1119-2.7108Z"/><path class="cls-3" d="M50.783,667.1781a6.11,6.11,0,0,1,1.2119,4.0337v11.5424H49.1891v-11.16a3.993,3.993,0,0,0-.67-2.4709,2.4032,2.4032,0,0,0-2.04-.8769,4.9675,4.9675,0,0,0-2.36.51,11.208,11.208,0,0,0-2.2,1.6579,7.45,7.45,0,0,1,.0311.7978v11.5424H39.1447v-11.16a3.9985,3.9985,0,0,0-.6691-2.4709,2.4049,2.4049,0,0,0-2.0409-.8769,5.1053,5.1053,0,0,0-2.36.494,10,10,0,0,0-2.1679,1.6419v12.3722H29.1012V669.808l-.7019-3.6988h2.8059l.4469,2.2959a11.6046,11.6046,0,0,1,2.598-2.056,6.1413,6.1413,0,0,1,2.9178-.6219,4.872,4.872,0,0,1,2.7587.733,4.2113,4.2113,0,0,1,1.61,2.1048,12.96,12.96,0,0,1,2.71-2.1839,6.0607,6.0607,0,0,1,2.9658-.6539A4.3881,4.3881,0,0,1,50.783,667.1781Z"/><path class="cls-3" d="M70.17,682.7542l-.4469-2.3278a12.059,12.059,0,0,1-2.8218,2.0409,7.0873,7.0873,0,0,1-3.1728.67,4.3484,4.3484,0,0,1-3.5229-1.4989,5.9859,5.9859,0,0,1-1.26-3.9858V666.1092h2.8059v11.16a3.89,3.89,0,0,0,.7019,2.44,2.3856,2.3856,0,0,0,2.0089.9089,6.0144,6.0144,0,0,0,2.63-.5428,10.7548,10.7548,0,0,0,2.3758-1.6259v-12.34h2.8059v12.9462l.7019,3.6988ZM67.7461,657.82H71.19l-4.2088,5.0058H64.3663Z"/><path class="cls-3" d="M79.0015,658.7117h2.8059v24.0425H79.0015Z"/><path class="cls-3" d="M91.6607,666.1092h4.5917v2.4238H91.6607v9.5335a3.1417,3.1417,0,0,0,.526,1.8978,1.7972,1.7972,0,0,0,1.5468.717,5.0933,5.0933,0,0,0,1.259-.1431,7.8,7.8,0,0,0,1.26-.4629v2.4877a5.3285,5.3285,0,0,1-1.4029.462,10.1189,10.1189,0,0,1-1.6259.1119,4.0693,4.0693,0,0,1-3.2048-1.3078,5.0322,5.0322,0,0,1-1.1639-3.4758v-9.82H85.666v-2.4238h3.1888v-4.4638l2.8059-1.4669Z"/><path class="cls-3" d="M100.6362,661.7734a2.2072,2.2072,0,0,1,0-2.9338,2.1208,2.1208,0,0,1,2.9018,0,2.2072,2.2072,0,0,1,0,2.9338,2.1208,2.1208,0,0,1-2.9018,0Zm2.8538,4.3359v16.6449h-2.8059V666.1092Z"/><path class="cls-3" d="M121.4108,666.8751A7.0364,7.0364,0,0,1,123.7227,670a12.0773,12.0773,0,0,1,.781,4.4638,10.4577,10.4577,0,0,1-.9089,4.4478,6.9952,6.9952,0,0,1-6.6485,4.1936,9.0549,9.0549,0,0,1-2.2-.255,15.3328,15.3328,0,0,1-2.1679-.7339v8.0355h-2.8059V669.808l-.7019-3.6988h2.8059l.4149,2.1368a6.8589,6.8589,0,0,1,5.4207-2.5189A5.9869,5.9869,0,0,1,121.4108,666.8751Zm-1.1959,12.0212a7.32,7.32,0,0,0,1.26-4.4326,8.9511,8.9511,0,0,0-.9729-4.4318,3.2542,3.2542,0,0,0-3.0449-1.7219,5.6118,5.6118,0,0,0-2.6308.6059,8.2958,8.2958,0,0,0-2.2479,1.785V679.98a13.8284,13.8284,0,0,0,4.0809.6379A4.1475,4.1475,0,0,0,120.2149,678.8963Z"/><path class="cls-3" d="M130.0194,658.7117h2.8059v24.0425h-2.8059Z"/><path class="cls-3" d="M149.4382,682.7542l-.446-2.3918a8.8367,8.8367,0,0,1-2.6948,2.0728,7.4172,7.4172,0,0,1-3.2679.7019,5.2,5.2,0,0,1-3.6668-1.2918,4.8649,4.8649,0,0,1,.829-7.5087,11.2407,11.2407,0,0,1,5.74-1.3078,27.34,27.34,0,0,1,2.8059.16v-1.1479a3.9486,3.9486,0,0,0-.9409-2.7587,3.1436,3.1436,0,0,0-2.4389-1.036,10.2957,10.2957,0,0,0-3.2367.478,12.4347,12.4347,0,0,0-2.9809,1.4989v-2.71a10.1052,10.1052,0,0,1,3.0609-1.3878,14.5253,14.5253,0,0,1,3.5709-.3981,5.603,5.603,0,0,1,4.1617,1.6259,5.8522,5.8522,0,0,1,1.61,4.3047v7.3976l.7019,3.6988Zm-3.0928-2.6148a9.6776,9.6776,0,0,0,2.3918-1.849v-3.1248h-2.9338q-4.8147,0-4.8147,3.0928a2.3864,2.3864,0,0,0,.7339,1.833,2.64,2.64,0,0,0,1.8809.6859A5.79,5.79,0,0,0,146.3454,680.1394Z"/><path class="cls-3" d="M159.0206,682.6742a10.9834,10.9834,0,0,1-2.79-1.323v-2.9338a9.4238,9.4238,0,0,0,5.7388,2.2319,4.7255,4.7255,0,0,0,2.6788-.6851,2.1105,2.1105,0,0,0,1.02-1.8338,1.8023,1.8023,0,0,0-.494-1.307,3.4138,3.4138,0,0,0-1.2279-.797q-.7334-.2878-2.104-.7019a24.64,24.64,0,0,1-2.79-.9409,4.8566,4.8566,0,0,1-1.8658-1.3709,3.5626,3.5626,0,0,1-.765-2.375,4.3262,4.3262,0,0,1,1.69-3.5717,6.9242,6.9242,0,0,1,4.4318-1.339,9.0045,9.0045,0,0,1,4.9746,1.4349V670a8.8992,8.8992,0,0,0-2.4078-1.3709,7.2226,7.2226,0,0,0-2.4389-.4149,4.7487,4.7487,0,0,0-2.5189.574,1.7856,1.7856,0,0,0-.9249,1.594,1.6119,1.6119,0,0,0,.494,1.2119,3.6673,3.6673,0,0,0,1.2279.7658q.7334.2866,2.1048.701a26.6959,26.6959,0,0,1,2.8059.9729,4.7684,4.7684,0,0,1,1.849,1.4029,3.7422,3.7422,0,0,1,.765,2.4389,4.6694,4.6694,0,0,1-.829,2.7267,5.4944,5.4944,0,0,1-2.2959,1.865,7.9031,7.9031,0,0,1-3.3159.67A10.0714,10.0714,0,0,1,159.0206,682.6742Z"/><path class="cls-3" d="M183.78,680.7613a10.8359,10.8359,0,0,1,0-12.6592,7.9693,7.9693,0,0,1,11.3513,0,10.8359,10.8359,0,0,1,0,12.6592,7.9673,7.9673,0,0,1-11.3513,0Zm9.1834-1.77a9.4,9.4,0,0,0,0-9.1195,3.9742,3.9742,0,0,0-3.5077-1.7219,3.9337,3.9337,0,0,0-3.4917,1.7219,9.52,9.52,0,0,0,0,9.1195,3.9337,3.9337,0,0,0,3.4917,1.7219A3.9742,3.9742,0,0,0,192.9635,678.9914Z"/><path class="cls-3" d="M214.5183,666.8751A7.0364,7.0364,0,0,1,216.83,670a12.0773,12.0773,0,0,1,.781,4.4638,10.4577,10.4577,0,0,1-.9089,4.4478,6.9952,6.9952,0,0,1-6.6485,4.1936,9.0549,9.0549,0,0,1-2.2-.255,15.3328,15.3328,0,0,1-2.1679-.7339v8.0355H202.88V669.808l-.7019-3.6988h2.8059l.4149,2.1368a6.8589,6.8589,0,0,1,5.4207-2.5189A5.9869,5.9869,0,0,1,214.5183,666.8751Zm-1.1959,12.0212a7.32,7.32,0,0,0,1.26-4.4326,8.9511,8.9511,0,0,0-.9729-4.4318,3.2542,3.2542,0,0,0-3.0449-1.7219,5.6118,5.6118,0,0,0-2.6308.6059,8.2958,8.2958,0,0,0-2.2479,1.785V679.98a13.8284,13.8284,0,0,0,4.0809.6379A4.1475,4.1475,0,0,0,213.3224,678.8963Z"/><path class="cls-3" d="M224.5937,680.7613a10.8359,10.8359,0,0,1,0-12.6592,7.9693,7.9693,0,0,1,11.3513,0,10.8359,10.8359,0,0,1,0,12.6592,7.9673,7.9673,0,0,1-11.3513,0Zm9.1834-1.77a9.4,9.4,0,0,0,0-9.1195,3.9742,3.9742,0,0,0-3.5077-1.7219,3.9337,3.9337,0,0,0-3.4917,1.7219,9.52,9.52,0,0,0,0,9.1195,3.9337,3.9337,0,0,0,3.4917,1.7219A3.9742,3.9742,0,0,0,233.7772,678.9914Z"/><path class="cls-3" d="M252.0152,665.7272V668.82h-.478a6.4581,6.4581,0,0,0-2.6939.542,5.222,5.222,0,0,0-1.9929,1.5628v11.8294h-2.8067V669.808l-.701-3.6988h2.8059l.574,2.9658a12.4106,12.4106,0,0,1,2.2159-2.6308,3.278,3.278,0,0,1,2.0888-.717Z"/><path class="cls-3" d="M260.6566,666.1092h4.5917v2.4238h-4.5917v9.5335a3.1417,3.1417,0,0,0,.526,1.8978,1.7972,1.7972,0,0,0,1.5468.717,5.0933,5.0933,0,0,0,1.259-.1431,7.8,7.8,0,0,0,1.26-.4629v2.4877a5.3285,5.3285,0,0,1-1.4029.462,10.1189,10.1189,0,0,1-1.6259.1119,4.0693,4.0693,0,0,1-3.2048-1.3078,5.0322,5.0322,0,0,1-1.1639-3.4758v-9.82H254.662v-2.4238h3.1888v-4.4638l2.8059-1.4669Z"/><path class="cls-3" d="M281.2554,682.7542l-.4469-2.3278a12.059,12.059,0,0,1-2.8218,2.0409,7.0873,7.0873,0,0,1-3.1728.67,4.3484,4.3484,0,0,1-3.5229-1.4989,5.9859,5.9859,0,0,1-1.26-3.9858V666.1092h2.8059v11.16a3.89,3.89,0,0,0,.7019,2.44,2.3856,2.3856,0,0,0,2.0089.9089,6.0144,6.0144,0,0,0,2.63-.5428,10.7548,10.7548,0,0,0,2.3758-1.6259v-12.34h2.8059v12.9462l.7019,3.6988Z"/><path class="cls-3" d="M302.6822,667.1781a6.11,6.11,0,0,1,1.2119,4.0337v11.5424h-2.8059v-11.16a3.9984,3.9984,0,0,0-.67-2.4709,2.4039,2.4039,0,0,0-2.0409-.8769,6.08,6.08,0,0,0-2.6308.51,10.8388,10.8388,0,0,0-2.375,1.6579v12.34h-2.8059V669.808l-.7019-3.6988H292.67l.4469,2.3278a11.6669,11.6669,0,0,1,2.79-2.072,7.2043,7.2043,0,0,1,3.2048-.6379A4.3893,4.3893,0,0,1,302.6822,667.1781Z"/><path class="cls-3" d="M310.4459,661.7734a2.2072,2.2072,0,0,1,0-2.9338,2.1208,2.1208,0,0,1,2.9018,0,2.2072,2.2072,0,0,1,0,2.9338,2.1208,2.1208,0,0,1-2.9018,0Zm2.8538,4.3359v16.6449h-2.8059V666.1092Z"/><path class="cls-3" d="M331.3156,682.7542l-.4141-2.2a7.6374,7.6374,0,0,1-2.5828,1.9129,7.85,7.85,0,0,1-3.2208.6379,5.43,5.43,0,0,1-4.7508-2.3918,10.5062,10.5062,0,0,1-1.6579-6.1217,10.945,10.945,0,0,1,.9089-4.56,7.3622,7.3622,0,0,1,2.614-3.1568,7.1053,7.1053,0,0,1,4.0657-1.1479,8.45,8.45,0,0,1,2.1688.271,14.6424,14.6424,0,0,1,2.1679.781v-8.0675H333.42v20.3437l.7019,3.6988ZM328.2707,679.9a8.9837,8.9837,0,0,0,2.3438-1.8338v-9.1506a12.3947,12.3947,0,0,0-4.05-.7019,4.1383,4.1383,0,0,0-3.5868,1.77,7.6515,7.6515,0,0,0-1.26,4.5437,9.0152,9.0152,0,0,0,.9089,4.3207,3.0784,3.0784,0,0,0,2.9178,1.6739A5.817,5.817,0,0,0,328.2707,679.9Z"/><path class="cls-3" d="M350.3195,682.7542l-.446-2.3918a8.8367,8.8367,0,0,1-2.6948,2.0728,7.4172,7.4172,0,0,1-3.2679.7019,5.2,5.2,0,0,1-3.6668-1.2918,4.8649,4.8649,0,0,1,.829-7.5087,11.2408,11.2408,0,0,1,5.74-1.3078,27.34,27.34,0,0,1,2.8059.16v-1.1479a3.9486,3.9486,0,0,0-.9409-2.7587,3.1436,3.1436,0,0,0-2.4389-1.036,10.2957,10.2957,0,0,0-3.2367.478,12.4347,12.4347,0,0,0-2.9809,1.4989v-2.71a10.1052,10.1052,0,0,1,3.0609-1.3878,14.5253,14.5253,0,0,1,3.5709-.3981,5.603,5.603,0,0,1,4.1617,1.6259,5.8522,5.8522,0,0,1,1.61,4.3047v7.3976l.7019,3.6988Zm-3.0928-2.6148a9.6776,9.6776,0,0,0,2.3918-1.849v-3.1248h-2.9338q-4.8147,0-4.8147,3.0928a2.3864,2.3864,0,0,0,.7339,1.833,2.64,2.64,0,0,0,1.8809.6859A5.79,5.79,0,0,0,347.2266,680.1394Z"/><path class="cls-3" d="M370.2163,682.7542l-.4141-2.2a7.6374,7.6374,0,0,1-2.5828,1.9129,7.85,7.85,0,0,1-3.2208.6379,5.43,5.43,0,0,1-4.7508-2.3918,10.5062,10.5062,0,0,1-1.6579-6.1217,10.945,10.945,0,0,1,.9089-4.56,7.3622,7.3622,0,0,1,2.614-3.1568,7.1053,7.1053,0,0,1,4.0657-1.1479,8.45,8.45,0,0,1,2.1688.271,14.6424,14.6424,0,0,1,2.1679.781v-8.0675h2.8059v20.3437l.7019,3.6988ZM367.1714,679.9a8.9837,8.9837,0,0,0,2.3438-1.8338v-9.1506a12.3947,12.3947,0,0,0-4.05-.7019,4.1383,4.1383,0,0,0-3.5868,1.77,7.6515,7.6515,0,0,0-1.26,4.5437,9.0152,9.0152,0,0,0,.9089,4.3207,3.0784,3.0784,0,0,0,2.9178,1.6739A5.817,5.817,0,0,0,367.1714,679.9Z"/><path class="cls-3" d="M392.632,675.3566H380.8346a6.4219,6.4219,0,0,0,1.6419,3.9058,4.9782,4.9782,0,0,0,3.7787,1.4509,6.9161,6.9161,0,0,0,2.79-.59,11.8955,11.8955,0,0,0,2.7579-1.7379h.1279v2.8059a10.4051,10.4051,0,0,1-2.7739,1.4829,9.1347,9.1347,0,0,1-2.9338.4629,8.5376,8.5376,0,0,1-4.4326-1.1159,7.4106,7.4106,0,0,1-2.885-3.11,10.0227,10.0227,0,0,1-1.0049-4.5749,10.3817,10.3817,0,0,1,.9089-4.4167,7.2431,7.2431,0,0,1,2.5988-3.0768,7.0066,7.0066,0,0,1,3.9538-1.1159,6.77,6.77,0,0,1,3.9378,1.1319,7.0288,7.0288,0,0,1,2.4869,3.1088,11.26,11.26,0,0,1,.845,4.4638ZM382.2375,669.49a6.7024,6.7024,0,0,0-1.4029,3.6988h8.8964a7.1785,7.1785,0,0,0-1.2918-3.7308,3.6,3.6,0,0,0-3.0449-1.4029A3.8754,3.8754,0,0,0,382.2375,669.49Z"/><path class="cls-3" d="M399.44,682.6742a10.9834,10.9834,0,0,1-2.79-1.323v-2.9338a9.4238,9.4238,0,0,0,5.7388,2.2319,4.7255,4.7255,0,0,0,2.6788-.6851,2.1105,2.1105,0,0,0,1.02-1.8338,1.8023,1.8023,0,0,0-.494-1.307,3.4138,3.4138,0,0,0-1.2279-.797q-.7334-.2878-2.104-.7019a24.64,24.64,0,0,1-2.79-.9409,4.8566,4.8566,0,0,1-1.8658-1.3709,3.5626,3.5626,0,0,1-.765-2.375,4.3262,4.3262,0,0,1,1.69-3.5717,6.9242,6.9242,0,0,1,4.4318-1.339,9.0045,9.0045,0,0,1,4.9746,1.4349V670a8.8992,8.8992,0,0,0-2.4078-1.3709,7.2226,7.2226,0,0,0-2.4389-.4149,4.7487,4.7487,0,0,0-2.5189.574,1.7856,1.7856,0,0,0-.9249,1.594,1.6119,1.6119,0,0,0,.494,1.2119,3.6673,3.6673,0,0,0,1.2279.7658q.7334.2866,2.1048.701a26.6958,26.6958,0,0,1,2.8059.9729,4.7684,4.7684,0,0,1,1.849,1.4029,3.7422,3.7422,0,0,1,.765,2.4389,4.6694,4.6694,0,0,1-.829,2.7267,5.4944,5.4944,0,0,1-2.2959,1.865,7.9031,7.9031,0,0,1-3.3159.67A10.0714,10.0714,0,0,1,399.44,682.6742Z"/><g class="cls-4"><path class="cls-5" d="M88.67,266.2929s-.0743,15.219,34.4962,28.1294c44.8921,16.765,73.0618-4.307,5.633,34.9087C92.284,350.5677,107.0982,399.1364,119.26,415.7c15.7616,21.4653-99.97-37.2948-101.9259-43.7681S88.67,266.2929,88.67,266.2929Z"/><path class="cls-5" d="M69.9989-1.5381S154.5766-.3594,177.5458,33.99c34.2756,51.2579,76.3981-19.3792,121.0068,16.5416C340.74,84.5028,343.02,117.1979,342.3571,143.84c-1.1539,46.399,62.0965-13.0092,96.3444,57.7524,15.9365,32.9274,20.02-105.9084-5.4166-145.0568S307.2441-75.7086,268.5606-68.2048,69.9989-1.5381,69.9989-1.5381Z"/><path class="cls-6" d="M-7.8466,244.5655s7.2812-53.2464,8.9261-49.0289c22.845,58.5736,88.0787,46.7547,104.4259,59.61,34.2,26.8949-42.757,30.8116-39.1708,55.6658s29.2437,23.3985,29.7417,56.2159-3.2813,33.941-3.2813,33.941S-9.0953,339.1366-9.3127,338.4173s-8.6322-70.1239-8.6322-70.1239Z"/><path class="cls-6" d="M143.7364,126.3212s-35.0721,27.1726-43.07,41.7536c-7.0191,12.7965-.058,14.7153,27.4423,5.9241,27.1217-8.67,32.3943-11.85,40.9331-30.8062,10.28-22.8219,12.6971-41.9491,9.0205-43.423S143.7364,126.3212,143.7364,126.3212Z"/><path class="cls-6" d="M481.3612,58.1254,459.1623,161.3982s-79.0116-32.1522-93.8684-58.1971c-5.9615-10.4278-10.2517-47.6329-20.6811-60.9493C355.06,27.0536,375.0182,14.5462,391.1082,1.1906l.467.2985Z"/><path class="cls-6" d="M395.1009-6.26c-16.09,13.3556-23.8072,33.0664-34.2539,48.2646a16.5054,16.5054,0,0,0-3.76-3.5578c-14.6211-9.8362-26.549-7.4875-96.1087,2.8581s-46.0706-69.8-46.0706-69.8l111.28-21.2268Z"/><path class="cls-5" d="M244.1747,117.1022c.4741-9.3662,14.937-10.5687,18.4092,5.6951s-1.1562,34.3674-10.6161,44.44-24.5634,23.42-26.8588,22.19C223.13,188.3675,241.8938,162.1642,244.1747,117.1022Z"/><path class="cls-6" d="M389.4478,313.2091c-4.322-17.4546-32.2943-64.9943-26.0611-75.9311,8.3061-14.574,22.5755-12.0147,26.1079-4.3371C409.8942,277.28,390.9316,319.2014,389.4478,313.2091Z"/><path class="cls-5" d="M.837,153.6552S7.6645,107.22,51.91,100.5045c25.01-3.7959,15.1884,17.9112-7.1241,35.4212C23.2878,152.7968,5.0048,172.4795,1.1524,185.4811-2.431,197.5751-8.86,173.6874-9.0042,169.1884Z"/><path class="cls-6" d="M-4.2632,143.3174S76.2019,3.2336,60.7668,69.9089c-1.0959,4.734,1.994,19.8723,4.9961,28.5019,8.9015,25.5875-29.8564,29.6459-44.614,39.3856-36.2,23.8913-10.3684-7.5392-14.2173-1.5907C.35,146.3783-4.5312,151.6882-4.5991,155.1931Z"/><path class="cls-5" d="M296.8177,264.4c-18.819,17.1946,5.008,56.171-22.4843,64.03-30.8965,8.8322-37.823.0742-57.3093,21.61s4.6311,16.9866,45.5878,6.4124c34.882-9.0059,53.2529-38.4446,44.6237-64.7319C300.105,269.998,298.9635,262.4392,296.8177,264.4Z"/><path class="cls-6" d="M296.8177,264.4s-24.0543-25.6866-24.77-38.5306c-.61-10.9594,22.2437-2.8241,27.2458,1.65C301.7243,229.6934,303.555,232.1989,296.8177,264.4Z"/></g><path class="cls-2" d="M81.7826,90.7438c-26.1313-19.3357,38.1147-74.5905,73.1661-50.7482,39.0345,26.5517.8379,58.0506-45.66,95.7393-24.8827,20.1687-38.4372,28.3035-33.8814,45.677,3.4189,13.0378,22.5859,16.105,41.5706,11.2264,28.995-7.451,79.5017-12.1158,82.1441-87.4384,1.8209-51.9047,84.39-72.4059,115.1782-12.6707,23.3428,45.29,3.598,73.7508-16.445,96.9579-40.0533,46.3765-116.8811,52.3959-109.7613,68.3542,5.9033,13.2315,70.5534-13.8558,80.699,10.79,20.9313,50.847-118.4473,66.5539-83.1879,105.2946,12.6911,13.9442,69.3034,2.4165,85.7569-4.6115,21.3095-9.1021,41.4913-17.4824,48.3667-41.6532,7.9222-27.8509,3.6707-32.83-6.5619-72.7-7.9322-30.9071,5.7887-55.7241,22.544-67,23.12-15.56,53.7437-16.4414,75.94,3.2517,29.826,26.4623,8.1215,73.5706-.9483,71.6751-7.8774-1.6463-2.3366-10.5783-11.3449-34.0856-8.9491-23.3529-26.8928-27.1478-45.137-13.989-32.9556,23.77,30.4418,77.09,17.11,118.0257-16.1563,49.61-77.3635,68.3979-113.8313,76.911-38.1207,8.8989-115.5785,9.5092-126.1175-30.78-16.8836-64.5434,102.287-60.1411,91.911-91.8979-4.9046-15.0112-79.55,10.49-89.3242-14.698-6.5382-16.8493,8.992-25.7158,30.814-35.76,39.4636-18.1647,122.094-49.4043,116.8477-107.3174-5.1334-56.6665-48.67-45.3905-52.2923-18.6587C221.1627,170.9788,212.84,186.58,175.75,208.5686c-29.8889,17.72-112.1817,36.6112-141.1129,9.1342-25.5026-24.2207-3.4759-49.9873,18.22-70.3862C79.8358,121.95,139.1556,85.9227,133.024,67.4672,124.1,40.606,85.2585,93.3158,81.7826,90.7438Z"/></svg>